<svg width="42" height="46" viewBox="0 0 42 46" fill="none" xmlns="http://www.w3.org/2000/svg">
<path d="M13.3515 9.21673C11.8874 9.7359 10.8384 11.0542 10.8384 12.6078C10.8384 13.2061 11.0081 13.7629 11.2822 14.2614C10.1209 14.6805 9.29004 15.7316 9.29004 16.9683C9.29004 18.2054 10.1209 19.2561 11.2822 19.6756C11.0081 20.1741 10.8384 20.7309 10.8384 21.3289C10.8384 22.8828 11.8874 24.2011 13.3515 24.7199C13.2354 25.0244 13.161 25.348 13.161 25.6894C13.161 27.2927 14.5498 28.5964 16.2577 28.5964C16.6433 28.5964 17.0088 28.5215 17.3494 28.4009C17.851 29.3729 18.9031 30.0499 20.1286 30.0499C21.8365 30.0499 23.2253 28.7462 23.2253 27.1429V6.79374C23.2253 5.19083 21.8365 3.88672 20.1286 3.88672C18.9031 3.88672 17.851 4.56415 17.3494 5.53576C17.0088 5.41511 16.6433 5.34023 16.2577 5.34023C14.5498 5.34023 13.161 6.64435 13.161 8.24725C13.161 8.58898 13.2354 8.91226 13.3515 9.21673ZM16.2577 6.79374C17.1116 6.79374 17.8061 7.44562 17.8061 8.24725H19.3544C19.3544 7.54889 19.0796 6.9151 18.6407 6.41369C18.8203 5.79765 19.4157 5.34023 20.1286 5.34023C20.9826 5.34023 21.677 5.99211 21.677 6.79374V27.1429C21.677 27.9445 20.9826 28.5964 20.1286 28.5964C19.4157 28.5964 18.8203 28.1394 18.6407 27.523C19.0796 27.0215 19.3544 26.3881 19.3544 25.6894H17.8061C17.8061 26.491 17.1116 27.1429 16.2577 27.1429C15.4037 27.1429 14.7093 26.491 14.7093 25.6894C14.7093 24.8878 15.4037 24.2359 16.2577 24.2359V22.7824C15.5035 22.7824 14.8208 23.0471 14.2837 23.4687C13.2059 23.2802 12.3868 22.3945 12.3868 21.3289C12.3868 20.1269 13.429 19.1486 14.7093 19.1486C15.9901 19.1486 17.0319 20.1269 17.0319 21.3289H18.5802C18.5802 19.3253 16.844 17.6951 14.7093 17.6951C13.8346 17.6951 13.0355 17.9793 12.3868 18.441V18.4218C11.5328 18.4218 10.8384 17.77 10.8384 16.9683C10.8384 16.1667 11.5328 15.5148 12.3868 15.5148V15.496C13.0355 15.9577 13.8346 16.2416 14.7093 16.2416C16.844 16.2416 18.5802 14.6117 18.5802 12.6078H17.0319C17.0319 13.8101 15.9901 14.7881 14.7093 14.7881C13.429 14.7881 12.3868 13.8101 12.3868 12.6078C12.3868 11.5425 13.2059 10.6568 14.2837 10.4683C14.8208 10.8899 15.5035 11.1543 16.2577 11.1543V9.70077C15.4037 9.70077 14.7093 9.04889 14.7093 8.24725C14.7093 7.44562 15.4037 6.79374 16.2577 6.79374V6.79374Z" fill="#FFC13E"/>
<path d="M31.7415 5.34023C31.3559 5.34023 30.9907 5.41511 30.6501 5.53576C30.1481 4.56415 29.0961 3.88672 27.8705 3.88672C26.1626 3.88672 24.7738 5.19083 24.7738 6.79374V27.1429C24.7738 28.7462 26.1626 30.0499 27.8705 30.0499C29.0961 30.0499 30.1481 29.3729 30.6501 28.4009C30.9907 28.5215 31.3559 28.5964 31.7415 28.5964C33.4493 28.5964 34.8382 27.2927 34.8382 25.6894C34.8382 25.348 34.7641 25.0244 34.6477 24.7199C36.1117 24.2011 37.1607 22.8828 37.1607 21.3289C37.1607 20.7309 36.9914 20.1741 36.7173 19.6756C37.8786 19.2561 38.7091 18.2054 38.7091 16.9683C38.7091 15.7316 37.8786 14.6805 36.7173 14.2614C36.9914 13.7629 37.1607 13.2061 37.1607 12.6078C37.1607 11.0542 36.1117 9.7359 34.6477 9.21673C34.7641 8.91226 34.8382 8.58898 34.8382 8.24725C34.8382 6.64435 33.4493 5.34023 31.7415 5.34023V5.34023ZM35.6124 12.6078C35.6124 13.8101 34.5706 14.7881 33.2898 14.7881C32.0095 14.7881 30.9673 13.8101 30.9673 12.6078H29.4189C29.4189 14.6117 31.1555 16.2416 33.2898 16.2416C34.1646 16.2416 34.9637 15.9577 35.6124 15.496V15.5148C36.4663 15.5148 37.1607 16.1667 37.1607 16.9683C37.1607 17.77 36.4663 18.4218 35.6124 18.4218V18.441C34.9637 17.9793 34.1646 17.6951 33.2898 17.6951C31.1555 17.6951 29.4189 19.3253 29.4189 21.3289H30.9673C30.9673 20.1269 32.0095 19.1486 33.2898 19.1486C34.5706 19.1486 35.6124 20.1269 35.6124 21.3289C35.6124 22.3945 34.7932 23.2802 33.7159 23.4687C33.1783 23.0471 32.4956 22.7824 31.7415 22.7824V24.2359C32.5954 24.2359 33.2898 24.8878 33.2898 25.6894C33.2898 26.491 32.5954 27.1429 31.7415 27.1429C30.8875 27.1429 30.1931 26.491 30.1931 25.6894H28.6447C28.6447 26.3881 28.9195 27.0215 29.3584 27.523C29.1789 28.1394 28.5835 28.5964 27.8705 28.5964C27.0166 28.5964 26.3222 27.9445 26.3222 27.1429V6.79374C26.3222 5.99211 27.0166 5.34023 27.8705 5.34023C28.5835 5.34023 29.1789 5.79765 29.3584 6.41369C28.9195 6.9151 28.6447 7.54889 28.6447 8.24725H30.1931C30.1931 7.44562 30.8875 6.79374 31.7415 6.79374C32.5954 6.79374 33.2898 7.44562 33.2898 8.24725C33.2898 9.04889 32.5954 9.70077 31.7415 9.70077V11.1543C32.4956 11.1543 33.1783 10.8899 33.7159 10.4683C34.7932 10.6568 35.6124 11.5425 35.6124 12.6078V12.6078Z" fill="#FFC13E"/>
<path d="M36.1908 4.78535C32.5732 1.59337 27.8351 -0.00705901 22.8626 0.286766L22.9586 1.73709C27.5021 1.472 31.8266 2.93048 35.1309 5.84425C38.4366 8.7605 40.2575 12.7119 40.2575 16.9685C40.2575 22.098 37.5339 26.8545 32.9716 29.6927C31.3979 30.6721 30.2072 32.0692 29.4734 33.6838H18.4939C17.7499 32.0575 16.5546 30.6505 14.9783 29.6622C10.2765 26.7122 7.57479 21.7857 7.75057 16.4816L6.20296 16.4365C6.01017 22.2449 8.96968 27.6409 14.1183 30.8702C15.2554 31.5838 16.1634 32.5554 16.7962 33.6838H14.7095V35.1374H17.4139C17.5639 35.6083 17.6841 36.0909 17.745 36.5909H16.2579V38.0444H17.8062V40.2247C17.8062 40.6267 18.1533 40.9514 18.5804 40.9514H19.3546C19.3546 43.3563 21.4379 45.312 23.9997 45.312C26.5615 45.312 28.6448 43.3563 28.6448 40.9514H29.419C29.8465 40.9514 30.1932 40.6267 30.1932 40.2247V38.0444H31.7415V36.5909H30.2476C30.3024 36.0916 30.4117 35.6076 30.5587 35.1374H33.2899V33.6838H31.1696C31.7933 32.5678 32.696 31.6083 33.8274 30.9049C38.823 27.7949 41.8059 22.5856 41.8059 16.9685C41.8059 12.3741 39.7589 7.93297 36.1908 4.78535V4.78535ZM23.9997 43.8584C22.2918 43.8584 20.903 42.5547 20.903 40.9514H27.0964C27.0964 42.5547 25.7076 43.8584 23.9997 43.8584ZM28.6448 39.4979H19.3546V38.0444H28.6448V39.4979ZM28.7 36.5909H19.2926C19.2408 36.0962 19.1573 35.61 19.0303 35.1374H28.9408C28.8176 35.6093 28.7461 36.0976 28.7 36.5909Z" fill="black"/>
<path d="M5.4192 5.34039C7.12708 5.34039 8.51592 6.64449 8.51592 8.24738C8.51592 8.64943 8.86294 8.97412 9.2901 8.97412C9.71764 8.97412 10.0643 8.64943 10.0643 8.24738C10.0643 6.64449 11.4531 5.34039 13.161 5.34039C13.5885 5.34039 13.9352 5.0157 13.9352 4.61365C13.9352 4.21195 13.5885 3.8869 13.161 3.8869C11.4531 3.8869 10.0643 2.58316 10.0643 0.979919C10.0643 0.578222 9.71764 0.253174 9.2901 0.253174C8.86294 0.253174 8.51592 0.578222 8.51592 0.979919C8.51592 2.58316 7.12708 3.8869 5.4192 3.8869C4.99204 3.8869 4.64502 4.21195 4.64502 4.61365C4.64502 5.0157 4.99204 5.34039 5.4192 5.34039ZM9.2901 3.38762C9.6341 3.87306 10.079 4.29108 10.5962 4.61365C10.079 4.93657 9.6341 5.35423 9.2901 5.83968C8.94648 5.35423 8.50118 4.93657 7.98405 4.61365C8.50118 4.29108 8.94648 3.87306 9.2901 3.38762Z" fill="#FFC13E"/>
<path d="M8.51598 12.608C8.94352 12.608 9.29016 12.2833 9.29016 11.8813C9.29016 11.4796 8.94352 11.1545 8.51598 11.1545C6.8081 11.1545 5.41926 9.85075 5.41926 8.2475C5.41926 7.8458 5.07262 7.52075 4.64508 7.52075C4.21792 7.52075 3.8709 7.8458 3.8709 8.2475C3.8709 9.85075 2.48206 11.1545 0.77418 11.1545C0.34702 11.1545 0 11.4796 0 11.8813C0 12.2833 0.34702 12.608 0.77418 12.608C2.48206 12.608 3.8709 13.9121 3.8709 15.515C3.8709 15.9171 4.21792 16.2418 4.64508 16.2418C5.07262 16.2418 5.41926 15.9171 5.41926 15.515C5.41926 13.9121 6.8081 12.608 8.51598 12.608ZM4.64508 13.1073C4.30146 12.6218 3.85616 12.2042 3.33903 11.8813C3.85616 11.5587 4.30071 11.1407 4.64508 10.6552C4.98908 11.1407 5.434 11.558 5.95113 11.8813C5.434 12.2042 4.98908 12.6218 4.64508 13.1073Z" fill="#FFC13E"/>
</svg>
