<svg width="48" height="46" viewBox="0 0 48 46" fill="none" xmlns="http://www.w3.org/2000/svg">
<path d="M14.3999 4.75903H4V6.26105H14.3999V4.75903Z" fill="black"/>
<path d="M14.3999 7.76294H4V9.26495H14.3999V7.76294Z" fill="black"/>
<path d="M11.1999 10.7668H4V12.2688H11.1999V10.7668Z" fill="black"/>
<path d="M11.1999 13.771H4V15.2729H11.1999V13.771Z" fill="black"/>
<path d="M47.9994 43.8101H0V45.312H47.9994V43.8101Z" fill="black"/>
<path d="M46.3155 6.67622L43.1156 0.66835C42.9183 0.297177 42.438 0.146417 42.0426 0.331628C42.0424 0.331722 42.0422 0.331816 42.042 0.33191L35.6421 3.33584C35.2467 3.52124 35.0862 3.97249 35.2837 4.34366C35.4812 4.71484 35.9619 4.8655 36.3573 4.6801L40.9924 2.50601L39.7276 5.89594C34.1684 20.7587 19.8497 31.1857 3.13208 32.5453L3.26808 34.0473C20.6156 32.6366 35.4731 21.8152 41.2388 6.39159L42.53 2.92806L44.8836 7.34759C45.081 7.71877 45.5617 7.86943 45.9571 7.68404C46.3526 7.49864 46.513 7.04748 46.3155 6.67622Z" fill="black"/>
<path d="M9.59987 36.3003H3.99994C3.55815 36.3003 3.19995 36.6365 3.19995 37.0513V41.5572C3.19995 41.972 3.55815 42.3082 3.99994 42.3082H9.59987C10.0417 42.3082 10.3999 41.972 10.3999 41.5572V37.0513C10.3999 36.6365 10.0417 36.3003 9.59987 36.3003ZM8.79988 40.8062H4.79993V37.8023H8.79988V40.8062Z" fill="#FFC13E"/>
<path d="M18.3999 34.0474H12.8C12.3582 34.0474 12 34.3836 12 34.7983V41.5571C12 41.9719 12.3582 42.3081 12.8 42.3081H18.3999C18.8417 42.3081 19.1999 41.9719 19.1999 41.5571V34.7983C19.1999 34.3836 18.8417 34.0474 18.3999 34.0474ZM17.5999 40.8062H13.6V35.5493H17.5999V40.8062Z" fill="#FFC13E"/>
<path d="M27.1997 30.2925H21.5998C21.158 30.2925 20.7998 30.6287 20.7998 31.0435V41.5572C20.7998 41.972 21.158 42.3082 21.5998 42.3082H27.1997C27.6415 42.3082 27.9997 41.972 27.9997 41.5572V31.0435C27.9997 30.6287 27.6415 30.2925 27.1997 30.2925ZM26.3997 40.8063H22.3998V31.7944H26.3997V40.8063Z" fill="#FFC13E"/>
<path d="M35.9998 25.0356H30.3998C29.958 25.0356 29.5999 25.3719 29.5999 25.7866V41.5572C29.5999 41.972 29.958 42.3082 30.3998 42.3082H35.9998C36.4416 42.3082 36.7998 41.972 36.7998 41.5572V25.7866C36.7998 25.3719 36.4416 25.0356 35.9998 25.0356ZM35.1998 40.8063H31.1998V26.5376H35.1998V40.8063Z" fill="#FFC13E"/>
<path d="M44.7996 14.5217H39.1996C38.7579 14.5217 38.3997 14.858 38.3997 15.2727V41.5571C38.3997 41.9719 38.7579 42.3081 39.1996 42.3081H44.7996C45.2414 42.3081 45.5996 41.9719 45.5996 41.5571V15.2727C45.5996 14.858 45.2414 14.5217 44.7996 14.5217ZM43.9996 40.8061H39.9996V16.0237H43.9996V40.8061Z" fill="#FFC13E"/>
</svg>
