<svg width="30" height="29" viewBox="0 0 30 29" fill="none" xmlns="http://www.w3.org/2000/svg">
<path d="M29.2281 24.1422L17.4575 13.0991L3.70554 0.197266H2.63082L2.41137 0.720414C1.83218 2.10125 1.58471 3.51354 1.69581 4.80444C1.82245 6.27593 2.41829 7.54988 3.41903 8.48876L14.1545 18.5606L15.5705 17.2322L25.4955 27.6441C26.4828 28.5704 28.1822 28.6254 29.2281 27.6441C30.2573 26.6786 30.2573 25.1077 29.2281 24.1422Z" fill="black"/>
<path d="M9.17979 16.228L0.771788 24.1161C-0.257263 25.0815 -0.257263 26.6525 0.771788 27.6179C1.74936 28.535 3.44051 28.616 4.50439 27.6179L12.9124 19.7298L9.17979 16.228Z" fill="#FFC13E"/>
<path d="M28.7339 4.88649L23.9644 9.36109L22.7201 8.19379L27.4896 3.71913L26.2454 2.55183L21.476 7.02643L20.2318 5.85913L25.0013 1.38453L23.7571 0.217285L17.536 6.05379C16.775 6.7678 16.3205 7.71585 16.2563 8.72342C16.24 8.9787 16.1784 9.22979 16.076 9.46862L20.1173 13.26C20.3718 13.1639 20.6395 13.1061 20.9116 13.0909C21.9855 13.0308 22.996 12.6043 23.7571 11.8903L29.9782 6.05384L28.7339 4.88649Z" fill="#FFC13E"/>
</svg>
