<svg width="45" height="46" viewBox="0 0 45 46" fill="none" xmlns="http://www.w3.org/2000/svg">
	<path d="M42.127 11.3583H41.6404C41.3528 10.41 40.951 9.50026 40.4403 8.6401L40.7861 8.31537C41.1818 7.94407 41.3996 7.44887 41.3996 6.92093C41.3996 6.39299 41.1818 5.89788 40.7858 5.52615L38.4815 3.36555C38.0858 2.99179 37.5576 2.78604 36.9942 2.78604C36.4309 2.78604 35.9026 2.99179 35.5088 3.3637L35.1634 3.688C34.2464 3.20705 33.2769 2.82916 32.2674 2.55925V2.10259C32.2675 1.01486 31.3249 0.129883 30.1661 0.129883H26.9081C25.7494 0.129883 24.8067 1.01486 24.8067 2.10259V2.55925C23.7974 2.82907 22.8273 3.20705 21.9085 3.68835L21.5646 3.36555C21.1687 2.99179 20.6405 2.78604 20.0772 2.78613C19.5139 2.78613 18.9857 2.99197 18.5919 3.36379L16.2881 5.52659C15.8924 5.89788 15.6746 6.39308 15.6746 6.92102C15.6746 7.44896 15.8924 7.94407 16.288 8.31537L16.6337 8.64001C16.1208 9.50281 15.7189 10.4128 15.4328 11.3583H14.9445C13.7858 11.3583 12.843 12.2433 12.843 13.331V16.392C12.843 17.4797 13.7858 18.3647 14.9445 18.3647H15.4328C15.7189 19.3101 16.1208 20.2201 16.6337 21.083L16.288 21.4076C15.8923 21.7789 15.6745 22.2741 15.6745 22.8021C15.6745 23.3299 15.8923 23.8251 16.2879 24.1964L18.59 26.3574C18.9857 26.7312 19.5138 26.937 20.0771 26.937H20.0772C20.6405 26.937 21.1688 26.7312 21.5626 26.3593L21.9084 26.0346C22.8281 26.5164 23.7982 26.8938 24.8066 27.1623V27.6205C24.8066 28.7082 25.7493 29.5932 26.908 29.5932H30.166C31.3247 29.5932 32.2674 28.7082 32.2674 27.6205V27.1623C33.2761 26.8937 34.2454 26.5165 35.1634 26.035L35.5069 26.3574C35.9026 26.7312 36.4308 26.937 36.9941 26.937C37.5575 26.937 38.0858 26.7311 38.4792 26.3596L40.7861 24.1964C41.1817 23.825 41.3995 23.3298 41.3995 22.802C41.3995 22.274 41.1817 21.7789 40.7861 21.4076L40.4402 21.0829C40.9509 20.2227 41.3526 19.3129 41.6403 18.3647H42.1269C43.2856 18.3647 44.2283 17.4797 44.2283 16.392V13.331C44.2284 12.2433 43.2858 11.3583 42.127 11.3583V11.3583ZM30.3926 27.6204C30.3926 27.7357 30.2889 27.833 30.1661 27.833H26.9081C26.7853 27.833 26.6816 27.7357 26.6816 27.6204V26.4778V20.9298C26.6816 20.5617 26.4377 20.2326 26.0702 20.1046C23.551 19.2276 21.8585 16.9516 21.8585 14.4412C21.8585 12.4517 22.9138 10.5867 24.681 9.45274C24.7603 9.40187 24.8304 9.36033 24.8917 9.32627C24.8883 9.44068 24.8797 9.54945 24.8751 9.60622C24.8681 9.69554 24.8625 9.76603 24.8625 9.836V13.9895C24.8625 15.896 26.4493 17.4882 28.4749 17.6143C28.5163 17.6168 28.5577 17.6168 28.5991 17.6143C30.6233 17.4883 32.2089 15.8961 32.2089 13.9895V9.836C32.2089 9.76638 32.2034 9.69633 32.1965 9.60754C32.192 9.55051 32.1833 9.44112 32.18 9.32619C32.2412 9.36016 32.3109 9.40161 32.3899 9.45238C34.1576 10.5866 35.2129 12.4516 35.2129 14.4411C35.2129 16.9513 33.5213 19.2273 31.0036 20.1046C30.6362 20.2327 30.3924 20.5617 30.3924 20.9297V26.4778V27.6204H30.3926ZM42.3535 16.392C42.3535 16.5052 42.2476 16.6046 42.127 16.6046H40.9126C40.4746 16.6046 40.0949 16.8893 39.9982 17.2903C39.7013 18.5218 39.1871 19.6863 38.4699 20.7514C38.2357 21.0992 38.2895 21.5529 38.5994 21.8439L39.4605 22.6522C39.5164 22.7046 39.5247 22.7685 39.5247 22.802C39.5247 22.8353 39.5164 22.8993 39.4608 22.9514L37.1519 25.1165C37.0991 25.1663 37.0369 25.1768 36.9942 25.1768C36.9515 25.1768 36.8895 25.1663 36.8347 25.1146L35.9736 24.3062C35.6632 24.0149 35.1794 23.9648 34.8089 24.1851C34.0087 24.6612 33.1569 25.0389 32.2675 25.318V21.5151C35.1759 20.2445 37.088 17.4756 37.088 14.441C37.088 11.8698 35.7273 9.46162 33.4483 7.99925C33.0991 7.77528 32.0375 7.09386 31.1089 7.59558C30.1971 8.0884 30.2879 9.24364 30.3266 9.73699C30.33 9.77985 30.3333 9.81584 30.3341 9.836V13.9895C30.3341 14.9528 29.5498 15.7605 28.5371 15.8533C27.523 15.7604 26.7375 14.9528 26.7375 13.9895L26.7374 9.84233C26.7383 9.81584 26.7416 9.77985 26.745 9.73682C26.7841 9.24373 26.8757 8.0891 25.9647 7.59602C25.0365 7.09342 23.9732 7.7751 23.6234 7.99925C21.3442 9.46171 19.9835 11.8699 19.9835 14.4411C19.9835 17.4761 21.8967 20.2452 24.8067 21.5154V25.3181C23.9171 25.039 23.0643 24.6611 22.2617 24.1848C22.1074 24.0933 21.9338 24.0486 21.761 24.0486C21.5189 24.0486 21.2787 24.1366 21.0978 24.3064L20.235 25.1165C20.1822 25.1664 20.12 25.1769 20.0773 25.1769C20.0345 25.1769 19.9726 25.1664 19.9178 25.1147L17.6139 22.9518C17.5579 22.8994 17.5496 22.8354 17.5496 22.8021C17.5496 22.7686 17.5579 22.7047 17.6139 22.6522L18.4749 21.8439C18.7848 21.5529 18.8386 21.0992 18.6044 20.7514C17.8835 19.6806 17.3694 18.5167 17.0764 17.2918C16.9804 16.8901 16.6004 16.6045 16.1617 16.6045H14.9447C14.824 16.6045 14.7182 16.5052 14.7182 16.3919V13.3309C14.7182 13.2156 14.8219 13.1183 14.9447 13.1183H16.1617C16.6004 13.1183 16.9803 12.8327 17.0764 12.431C17.3694 11.2061 17.8834 10.0421 18.6044 8.97144C18.8386 8.62365 18.7848 8.16989 18.4749 7.87895L17.6138 7.07063C17.5579 7.01818 17.5496 6.95429 17.5496 6.92084C17.5496 6.8874 17.5579 6.82351 17.6139 6.77097L19.9198 4.60624C19.9726 4.55643 20.0346 4.54595 20.0774 4.54595C20.1201 4.54595 20.1822 4.55643 20.2369 4.60808L21.0979 5.41641C21.408 5.70744 21.8914 5.75786 22.2618 5.53803C23.4009 4.86198 24.6422 4.37839 25.9509 4.10091C26.3784 4.01027 26.6818 3.65376 26.6818 3.24252V2.10259C26.6818 1.98731 26.7855 1.88997 26.9083 1.88997H30.1662C30.2891 1.88997 30.3927 1.98731 30.3927 2.10259V3.24269C30.3927 3.65403 30.6962 4.01044 31.1236 4.10109C32.4334 4.37883 33.6734 4.86215 34.8091 5.53776C35.1797 5.75813 35.6634 5.70797 35.9738 5.41667L36.8368 4.6065C36.8896 4.55669 36.9517 4.54622 36.9944 4.54622C37.0371 4.54622 37.0992 4.55669 37.1543 4.6087L39.4607 6.77124C39.5166 6.82369 39.5249 6.88758 39.5249 6.92102C39.5249 6.95446 39.5166 7.01835 39.4606 7.07089L38.5996 7.87921C38.2897 8.17016 38.2359 8.62391 38.4701 8.9717C39.1872 10.0368 39.7015 11.2012 39.9984 12.4327C40.0951 12.8338 40.4748 13.1185 40.9128 13.1185H42.1272C42.25 13.1185 42.3537 13.2158 42.3537 13.3311V16.392H42.3535Z" fill="#FFC13E" />
	<path d="M33.9995 38.8803C33.6335 39.224 33.6335 39.7812 33.9995 40.125C34.1826 40.2968 34.4225 40.3828 34.6625 40.3828C34.9024 40.3828 35.1423 40.2968 35.3254 40.125L35.328 40.1225C35.6941 39.7789 35.6928 39.2228 35.3266 38.8792C34.9604 38.5355 34.3656 38.5368 33.9995 38.8803V38.8803Z" fill="black" />
	<path d="M38.3425 30.355L30.8998 33.943C30.2688 33.3297 29.3848 32.947 28.4069 32.947H23.3074C23.0218 32.947 22.9521 32.9257 22.9474 32.9242C22.9061 32.9038 22.7754 32.7885 22.6705 32.6959L22.624 32.6549C18.4983 29.0092 15.0132 29.2402 11.0501 30.7084C10.4088 30.9461 10.3964 30.9466 9.7525 30.9724L8.5994 30.9732C8.2709 30.0429 7.33605 29.3696 6.2363 29.3696H2.48676C1.11551 29.3696 0 30.418 0 31.7066V40.9443C0 42.2315 1.11551 43.2787 2.48676 43.2787H6.2363C7.33596 43.2787 8.27072 42.6063 8.5993 41.6771H10.7086C10.8949 41.6771 10.8949 41.6771 11.1116 41.7344C11.1903 41.7553 11.2861 41.7806 11.4099 41.8119L21.1122 44.2485C21.5399 44.3569 21.9321 44.4637 22.3115 44.5668C23.5546 44.905 24.5995 45.1892 25.6886 45.1892C26.9195 45.1892 28.2066 44.8261 29.8994 43.7671C29.9075 43.762 29.9157 43.7567 29.9238 43.7513L31.776 42.5114C32.1976 42.2292 32.2957 41.6797 31.995 41.2839C31.6944 40.8881 31.1088 40.7961 30.6875 41.0783L28.8475 42.31C26.391 43.8438 25.3478 43.5602 22.8333 42.8763C22.446 42.7709 22.0455 42.662 21.5991 42.5488L11.896 40.1121C11.7824 40.0834 11.6933 40.0598 11.6201 40.0404C11.2661 39.9468 11.1338 39.9172 10.7087 39.9172H8.72577V32.7339H9.7389C9.7524 32.7339 9.76571 32.7337 9.77921 32.7332L9.83265 32.731C10.6185 32.6995 10.8384 32.6794 11.7385 32.3458C15.2193 31.0563 17.9061 30.9031 21.3401 33.9378L21.3865 33.9787C21.9734 34.4964 22.3113 34.7073 23.3075 34.7073H28.407C29.0055 34.7073 29.5274 35.0192 29.7994 35.4786C29.8024 35.4837 29.8057 35.4886 29.8087 35.4937C29.9302 35.7046 29.9994 35.9459 29.9994 36.2022C29.9994 37.0251 29.2851 37.6946 28.4071 37.6946H20.1426C19.6249 37.6946 19.2051 38.0886 19.2051 38.5746C19.2051 39.0607 19.6249 39.4547 20.1426 39.4547H28.4071C30.319 39.4547 31.8744 37.9956 31.8744 36.2022C31.8744 35.9584 31.8447 35.7212 31.7904 35.4926L39.1991 31.921C39.9003 31.583 40.8592 31.6193 41.3352 32.3444C41.7563 32.9836 41.5247 33.8332 40.7967 34.3204L37.5468 36.4932C37.125 36.7752 37.0266 37.3247 37.3269 37.7206C37.5098 37.9617 37.7984 38.0902 38.0913 38.0902C38.2795 38.0902 38.4694 38.0372 38.6343 37.927L41.8847 35.7539C43.4283 34.7208 43.8776 32.8571 42.9305 31.4199C41.9992 30.0011 40.027 29.5433 38.3425 30.355V30.355ZM6.85072 40.9443C6.85072 41.2557 6.56938 41.5186 6.2363 41.5186H2.48676C2.15508 41.5186 1.87496 41.2556 1.87496 40.9443V31.7067C1.87496 31.3886 2.14945 31.1298 2.48676 31.1298H6.2363C6.56938 31.1298 6.85072 31.3939 6.85072 31.7067V40.9443Z" fill="black" />
</svg>
