<svg width="24" height="29" viewBox="0 0 24 29" fill="none" xmlns="http://www.w3.org/2000/svg">
<path d="M9 10.7957H13V11.7344H9V10.7957Z" fill="#FFC13E"/>
<path d="M3 10.7957H7.5V11.7344H3V10.7957Z" fill="#FFC13E"/>
<path d="M11.5 12.6731H20V13.6118H11.5V12.6731Z" fill="#FFC13E"/>
<path d="M6 12.6731H10V13.6118H6V12.6731Z" fill="#FFC13E"/>
<path d="M3 12.6731H5V13.6118H3V12.6731Z" fill="#FFC13E"/>
<path d="M8 15.4893H15V16.428H8V15.4893Z" fill="#FFC13E"/>
<path d="M17.5 18.7749H20V19.7134H17.5V18.7749Z" fill="#FFC13E"/>
<path d="M10 18.7749H16V19.7134H10V18.7749Z" fill="#FFC13E"/>
<path d="M3 18.7749H8.5V19.7134H3V18.7749Z" fill="#FFC13E"/>
<path d="M14 20.6523H20V21.5911H14V20.6523Z" fill="#FFC13E"/>
<path d="M6.5 20.6523H12.5V21.5911H6.5V20.6523Z" fill="#FFC13E"/>
<path d="M3 20.6523H5V21.5911H3V20.6523Z" fill="#FFC13E"/>
<path d="M18 22.5298H20V23.4685H18V22.5298Z" fill="#FFC13E"/>
<path d="M9 22.5298H16.5V23.4685H9V22.5298Z" fill="#FFC13E"/>
<path d="M3 22.5298H7.5V23.4685H3V22.5298Z" fill="#FFC13E"/>
<path d="M18.5 24.4075H20V25.3459H18.5V24.4075Z" fill="#FFC13E"/>
<path d="M12 24.4075H17V25.3459H12V24.4075Z" fill="#FFC13E"/>
<path d="M3 24.4075H10.5V25.3459H3V24.4075Z" fill="#FFC13E"/>
<path d="M2.5 28.1621H21.5C22.1628 28.1614 22.7982 27.9139 23.2669 27.474C23.7356 27.034 23.9992 26.4375 24 25.8153V8.28758C24.0009 7.97926 23.9366 7.67384 23.811 7.38899C23.6853 7.10414 23.5006 6.84553 23.2678 6.62812L16.9394 0.687388L16.9393 0.687359C16.7077 0.468765 16.4322 0.295461 16.1288 0.177478C15.8253 0.059495 15.5 -0.000825167 15.1716 8.52522e-06H2.5C1.83719 0.000715388 1.20174 0.248198 0.733064 0.688163C0.264387 1.12813 0.000752993 1.72465 0 2.34685V25.8153C0.000752993 26.4375 0.264387 27.034 0.733064 27.474C1.20174 27.9139 1.83719 28.1614 2.5 28.1621V28.1621ZM1 2.34685C1.00045 1.97353 1.15864 1.61562 1.43984 1.35164C1.72105 1.08766 2.10231 0.939172 2.5 0.938745H15.1716C15.282 0.938809 15.3922 0.95024 15.5 0.972833V5.63243C15.5007 6.25463 15.7644 6.85115 16.2331 7.29112C16.7017 7.73108 17.3372 7.97856 18 7.97927H21V7.04053H18C17.6023 7.04011 17.221 6.89162 16.9398 6.62764C16.6586 6.36366 16.5004 6.00575 16.5 5.63243V1.60252L22.5607 7.29192C22.7004 7.42236 22.8112 7.57753 22.8866 7.74843C22.962 7.91934 23.0005 8.10259 23 8.28758V25.8153C22.9995 26.1886 22.8414 26.5465 22.5601 26.8105C22.2789 27.0745 21.8977 27.2229 21.5 27.2234H2.5C2.10231 27.2229 1.72105 27.0745 1.43984 26.8105C1.15864 26.5465 1.00045 26.1886 1 25.8153V2.34685Z" fill="black"/>
<path d="M3.20001 7.88547L5.20001 9.29357C5.28655 9.35451 5.39182 9.38745 5.5 9.38745H7.5C7.60818 9.38745 7.71345 9.35451 7.79999 9.29357L9.79999 7.88547C9.86209 7.84175 9.91249 7.78506 9.94721 7.71989C9.98193 7.65472 10 7.58285 10 7.50998V4.69378C10 4.61651 9.97968 4.54043 9.94084 4.4723C9.902 4.40418 9.84584 4.34611 9.77734 4.30325L6.77734 2.42578C6.69522 2.37436 6.59871 2.34692 6.5 2.34692C6.40129 2.34692 6.30478 2.37436 6.22266 2.42578L3.22266 4.30325C3.15416 4.34611 3.09801 4.40418 3.05916 4.4723C3.02032 4.54043 3 4.61651 3 4.69378V7.50998C3 7.58285 3.01807 7.65472 3.05279 7.71989C3.08751 7.78506 3.13791 7.84175 3.20001 7.88547V7.88547ZM7.33331 8.44872H5.66669L4 7.2753V5.57079L6.22266 6.96177C6.30479 7.01318 6.40129 7.04061 6.5 7.04061C6.59871 7.04061 6.69521 7.01318 6.77734 6.96177L9 5.57079V7.2753L7.33331 8.44872ZM6.5 3.38041L8.59863 4.69378L6.5 6.00714L4.40137 4.69378L6.5 3.38041Z" fill="black"/>
</svg>
