<svg width="30" height="29" viewBox="0 0 30 29" fill="none" xmlns="http://www.w3.org/2000/svg">
<path d="M7.58237 28.1273L8.13399 27.9826C8.66457 27.8434 8.97448 27.3268 8.82622 26.8287L2.5195 5.64214C2.43051 5.34315 2.21863 5.08959 1.93047 4.93725C1.64232 4.7849 1.3015 4.74626 0.982997 4.82982L0.911759 4.84849C0.248467 5.02246 -0.139006 5.66824 0.0463106 6.2909L6.35319 27.4775C6.50145 27.9755 7.05177 28.2665 7.58237 28.1273V28.1273Z" fill="black"/>
<path d="M29.7917 13.3217C27.7917 12.3855 25.9415 11.1906 24.2952 9.77189C24.1568 9.65297 24.1027 9.47043 24.1557 9.3015C24.9715 6.40452 25.5773 3.45901 25.969 0.485181C26.0309 -0.00946362 25.7468 -0.154947 25.4472 0.184515C19.5684 6.78463 9.39665 -1.023 3.34218 4.97578C3.41487 5.10354 3.47205 5.23855 3.51266 5.37828L7.60407 19.1313C13.6689 13.2053 23.8044 20.9644 29.6729 14.3789C29.9726 14.0394 30.0294 13.4187 29.7917 13.3217V13.3217Z" fill="#FFC13E"/>
</svg>
