<svg width="45" height="43" viewBox="0 0 45 43" fill="none" xmlns="http://www.w3.org/2000/svg">
<path d="M9.97302 26.014L8.40662 31.5035L2.68147 31.6172C0.970496 28.6381 0 25.2296 0 21.6074C0 18.1049 0.90739 14.8019 2.5158 11.8936H2.51703L7.61402 12.7708L9.84681 17.5269C9.37949 18.8059 9.12478 20.1788 9.12478 21.6074C9.12496 23.1579 9.42414 24.6435 9.97302 26.014Z" fill="#FBBB00"/>
<path d="M44.607 17.6621C44.8654 18.9398 45.0001 20.2593 45.0001 21.6079C45.0001 23.12 44.8308 24.5951 44.5081 26.0179C43.4128 30.8595 40.5508 35.0873 36.5861 38.0791L36.5849 38.0779L30.165 37.7704L29.2564 32.446C31.8871 30.9976 33.9431 28.7311 35.0261 26.0179H22.9946V17.6621H35.2016H44.607Z" fill="#518EF8"/>
<path d="M36.5848 38.0778L36.5861 38.079C32.7302 40.9883 27.832 42.729 22.5 42.729C13.9314 42.729 6.48172 38.2333 2.6814 31.6174L9.97292 26.0146C11.873 30.7749 16.765 34.1635 22.5 34.1635C24.9651 34.1635 27.2745 33.538 29.2562 32.446L36.5848 38.0778Z" fill="#28B446"/>
<path d="M36.8617 5.34852L29.5727 10.9505C27.5217 9.74702 25.0973 9.05181 22.5 9.05181C16.6351 9.05181 11.6517 12.5961 9.8468 17.5273L2.51698 11.894H2.51575C6.26042 5.11643 13.8041 0.48584 22.5 0.48584C27.9593 0.48584 32.965 2.31141 36.8617 5.34852Z" fill="#F14336"/>
</svg>
