<svg width="48" height="46" viewBox="0 0 48 46" fill="none" xmlns="http://www.w3.org/2000/svg">
<path d="M33.5172 19.8909L24.4537 28.3991H20.9032V26.9456H20.8831C22.3757 25.8969 23.4581 24.3605 23.8436 22.585H24C25.7079 22.585 27.0968 21.2812 27.0968 19.6779C27.0968 18.9468 26.7987 18.2862 26.3226 17.7753V15.3173C26.3226 10.1079 21.8075 5.86938 16.2581 5.86938C10.7086 5.86938 6.19355 10.1079 6.19355 15.3173V17.7753C5.71742 18.2862 5.41935 18.9468 5.41935 19.6779C5.41935 21.2812 6.80826 22.585 8.51613 22.585H8.67252C9.05806 24.3605 10.1404 25.8969 11.633 26.9456H11.6129V28.3991H7.74194C3.47303 28.3991 0 31.6594 0 35.6668V44.388C0 44.7899 0.346065 45.1147 0.774194 45.1147H31.7419C32.1701 45.1147 32.5161 44.7899 32.5161 44.388V35.6668C32.5161 32.2016 29.9172 29.2996 26.4542 28.5765L34.385 21.1315H48V19.6779H34.0645C33.8586 19.6779 33.6619 19.7542 33.5172 19.8909ZM12.024 29.8527L15.0372 33.2467L12.065 34.6413L10.3641 29.8527H12.024ZM16.1187 37.8471H16.3982L17.6369 43.6612H14.88L16.1187 37.8471ZM16.5538 36.3936H15.9623L15.1293 34.8288L16.2581 34.299L17.3868 34.8288L16.5538 36.3936ZM17.479 33.2467L20.4921 29.8527H22.152L20.4511 34.642L17.479 33.2467ZM24 21.1315V18.2244C24.8539 18.2244 25.5484 18.8763 25.5484 19.6779C25.5484 20.4796 24.8539 21.1315 24 21.1315ZM6.96774 19.6779C6.96774 18.8763 7.66219 18.2244 8.51613 18.2244V21.1315C7.66219 21.1315 6.96774 20.4796 6.96774 19.6779ZM8.51613 16.7709C8.24748 16.7709 7.99123 16.813 7.74194 16.8741V15.3173C7.74194 10.9095 11.5626 7.32292 16.2581 7.32292C20.9535 7.32292 24.7742 10.9095 24.7742 15.3173V16.8741C24.5249 16.813 24.2686 16.7709 24 16.7709C24 16.369 23.6539 16.0441 23.2258 16.0441C22.0142 16.0441 20.856 15.5005 20.129 14.5898L19.2 13.427C18.9081 13.0622 18.2532 13.0622 17.9613 13.427L17.0323 14.5906C16.3053 15.5005 15.1471 16.0441 13.9355 16.0441H9.29032C8.86219 16.0441 8.51613 16.369 8.51613 16.7709V16.7709ZM10.0645 21.1315V17.4976H13.9355C15.6317 17.4976 17.2529 16.7367 18.271 15.4627L18.5806 15.0746L18.8903 15.462C19.752 16.5405 21.0449 17.252 22.4516 17.4446V21.1315C22.4516 24.3372 19.673 26.9456 16.2581 26.9456C12.8431 26.9456 10.0645 24.3372 10.0645 21.1315ZM16.2581 28.3991C17.359 28.3991 18.4057 28.1789 19.3548 27.7879V28.8628L16.2581 32.3513L13.1613 28.8628V27.7879C14.1105 28.1789 15.1572 28.3991 16.2581 28.3991ZM1.54839 35.6668C1.54839 32.461 4.32697 29.8527 7.74194 29.8527H8.7329L10.879 35.8964C10.9494 36.0956 11.1097 36.2569 11.3164 36.3376C11.4116 36.3754 11.5123 36.3936 11.6129 36.3936C11.7314 36.3936 11.8506 36.3681 11.959 36.3172L13.7435 35.4793L14.6717 37.2228L13.3006 43.6612H6.19355V39.3006H4.64516V43.6612H1.54839V35.6668ZM30.9677 35.6668V43.6612H27.871V39.3006H26.3226V43.6612H19.2155L17.8436 37.2228L18.7719 35.4793L20.5564 36.3172C20.6655 36.3681 20.7848 36.3936 20.9032 36.3936C21.0039 36.3936 21.1045 36.3754 21.1997 36.3383C21.4072 36.2576 21.5675 36.0963 21.6372 35.8972L23.7832 29.8527H24.7742C28.1892 29.8527 30.9677 32.461 30.9677 35.6668V35.6668Z" fill="#FFC13E"/>
<path d="M46.4516 16.7706V6.59613C46.4516 6.19424 46.1055 5.86938 45.6774 5.86938H42.5806C42.1525 5.86938 41.8065 6.19424 41.8065 6.59613V16.7706H40.2581V10.9566C40.2581 10.5547 39.912 10.2299 39.4839 10.2299H36.3871C35.959 10.2299 35.6129 10.5547 35.6129 10.9566V16.7706H34.0645V13.1369C34.0645 12.735 33.7185 12.4101 33.2903 12.4101H30.1936C29.7654 12.4101 29.4194 12.735 29.4194 13.1369V16.7706H27.871V18.2241H48V16.7706H46.4516ZM43.3548 7.32288H44.9032V16.7706H43.3548V7.32288ZM37.1613 11.6834H38.7097V16.7706H37.1613V11.6834ZM30.9677 13.8636H32.5161V16.7706H30.9677V13.8636Z" fill="#FFC13E"/>
<path d="M35.1592 4.4158H39.4839C39.6898 4.4158 39.8865 4.33949 40.0313 4.20285L41.8065 2.53637V4.4158H43.3549V0.781946C43.3549 0.380042 43.0088 0.0551758 42.5807 0.0551758H38.7097V1.50872H40.7118L39.1634 2.96226H34.8387C34.6328 2.96226 34.4361 3.03857 34.2914 3.1752L29.6462 7.53582L30.7409 8.56348L35.1592 4.4158Z" fill="#FFC13E"/>
</svg>
