<svg width="40" height="29" viewBox="0 0 40 29" fill="none" xmlns="http://www.w3.org/2000/svg">
<path d="M33.767 28.3591C34.3669 28.3591 34.853 27.9027 34.853 27.3398V19.3045C34.853 18.7416 34.3668 18.2852 33.767 18.2852H31.9374C31.3376 18.2852 30.8515 18.7416 30.8515 19.3045C30.8515 19.8675 31.3377 20.3239 31.9374 20.3239H32.6811V27.3398C32.6811 27.9027 33.1673 28.3591 33.767 28.3591V28.3591Z" fill="black"/>
<path d="M6.47914 26.5248C6.0012 26.8615 5.90266 27.498 6.25969 27.9486C6.47275 28.2175 6.80033 28.3596 7.13182 28.3596C7.35707 28.3596 7.58436 28.2941 7.77899 28.1581C7.85069 28.1081 7.91919 28.054 7.98726 27.9999C10.0086 26.3926 11.9932 23.2362 11.1198 20.6661C10.951 20.1696 10.6433 19.7283 10.2534 19.3598C9.58885 18.7316 8.67115 18.3713 7.72776 18.3713C5.76391 18.3713 4.16638 19.871 4.16638 21.7145C4.16638 23.5581 5.76391 25.0577 7.72776 25.0577C7.77405 25.0577 7.81992 25.0561 7.86578 25.0544C7.19394 26.0001 6.50381 26.5068 6.47914 26.5248V26.5248ZM7.72776 23.0187C6.96158 23.0187 6.33836 22.4336 6.33836 21.7144C6.33836 20.9951 6.96172 20.4101 7.72776 20.4101C8.49379 20.4101 9.11701 20.9951 9.11701 21.7144C9.11701 22.4336 8.49393 23.0187 7.72776 23.0187Z" fill="black"/>
<path d="M12.9871 21.2999V25.016C12.9871 26.8594 14.5846 28.3591 16.5483 28.3591C18.512 28.3591 20.1095 26.8595 20.1095 25.016V21.2999C20.1095 19.4566 18.512 17.9568 16.5483 17.9568C14.5846 17.9568 12.9871 19.4566 12.9871 21.2999ZM17.9375 21.2999V25.016C17.9375 25.7352 17.3143 26.3202 16.5483 26.3202C15.7822 26.3202 15.159 25.7352 15.159 25.016V21.2999C15.159 20.5807 15.7822 19.9957 16.5483 19.9957C17.3143 19.9957 17.9375 20.5808 17.9375 21.2999Z" fill="black"/>
<path d="M21.9011 21.2999V25.016C21.9011 26.8594 23.4986 28.3591 25.4624 28.3591C27.4262 28.3591 29.0237 26.8595 29.0237 25.016V21.2999C29.0237 19.4566 27.4262 17.9568 25.4624 17.9568C23.4986 17.9569 21.9011 19.4566 21.9011 21.2999ZM26.8518 21.2999V25.016C26.8518 25.7352 26.2284 26.3202 25.4624 26.3202C24.6962 26.3202 24.0731 25.7352 24.0731 25.016V21.2999C24.0731 20.5807 24.6963 19.9957 25.4624 19.9957C26.2285 19.9958 26.8518 20.5808 26.8518 21.2999Z" fill="black"/>
<path d="M7.32843 11.5065V1.21739C7.32843 0.654421 6.84236 0.197998 6.2425 0.197998C5.64265 0.197998 5.15643 0.654421 5.15643 1.21739V11.5065C5.15643 12.0695 5.64265 12.5259 6.2425 12.5259C6.84236 12.5259 7.32843 12.0695 7.32843 11.5065Z" fill="#FFC13E"/>
<path d="M14.73 10.4869C13.562 10.4869 12.435 10.042 11.7152 9.29656C11.3122 8.87923 10.6254 8.84776 10.1813 9.22585C9.73686 9.60393 9.70304 10.2487 10.1058 10.6658C11.2302 11.8305 12.9589 12.5259 14.73 12.5259C16.867 12.5259 18.7296 11.2059 19.0627 9.45556C19.3152 8.12729 18.6585 6.38701 16.0577 5.48642C14.6654 5.00424 13.3726 4.47833 13.026 4.33554C12.7152 4.11687 12.5649 3.77093 12.6222 3.3968C12.6962 2.91313 13.0965 2.52373 13.6932 2.35492C15.3936 1.87424 16.9373 3.03261 16.9717 3.05877C17.4309 3.41724 18.1126 3.36056 18.4974 2.93097C18.8833 2.50002 18.8241 1.85694 18.3649 1.49452C18.2662 1.41673 15.9151 -0.403121 13.0667 0.402642C11.6607 0.800211 10.6665 1.83664 10.4721 3.10714C10.2908 4.29276 10.838 5.43315 11.9001 6.08304C11.948 6.11234 11.9984 6.13809 12.0508 6.16002C12.1139 6.18645 13.6149 6.81373 15.3061 7.39932C16.4637 7.80016 17.0535 8.41899 16.9247 9.09709C16.7946 9.78037 15.9383 10.4869 14.73 10.4869V10.4869Z" fill="#FFC13E"/>
<path d="M33.863 6.36182C33.863 2.96301 30.9174 0.197754 27.2967 0.197754C23.6759 0.197754 20.7302 2.96301 20.7302 6.36182C20.7302 9.76062 23.6759 12.5259 27.2967 12.5259C30.9174 12.5259 33.863 9.76076 33.863 6.36182ZM22.9024 6.36182C22.9024 4.08718 24.8736 2.23668 27.2968 2.23668C29.7197 2.23668 31.6911 4.08718 31.6911 6.36182C31.6911 8.63645 29.7199 10.487 27.2968 10.487C24.8736 10.487 22.9024 8.63645 22.9024 6.36182Z" fill="#FFC13E"/>
<path d="M0 15.189C0 15.752 0.486066 16.2085 1.08592 16.2085H37.9336C38.5335 16.2085 39.0195 15.752 39.0195 15.189C39.0195 14.6259 38.5335 14.1694 37.9336 14.1694H1.08606C0.48621 14.1694 0 14.6259 0 15.189Z" fill="black"/>
</svg>
