<svg width="45" height="44" viewBox="0 0 45 44" fill="none" xmlns="http://www.w3.org/2000/svg">
<path d="M22.5 43.1162C34.9358 43.1162 45 33.6696 45 21.9949C45 10.3211 34.9368 0.873535 22.5 0.873535C10.0642 0.873535 0 10.3201 0 21.9949C0 33.6687 10.0632 43.1162 22.5 43.1162ZM22.5 2.11111C34.1797 2.11111 43.6816 11.031 43.6816 21.9949C43.6816 32.9588 34.1797 41.8786 22.5 41.8786C10.8203 41.8786 1.31835 32.9588 1.31835 21.9949C1.31835 11.031 10.8203 2.11111 22.5 2.11111V2.11111Z" fill="black"/>
<path d="M5.66876 13.9925C5.98736 14.1577 6.38841 14.0493 6.56445 13.7501C7.20016 12.6698 7.95022 11.671 8.79528 10.7632H11.0957C10.6269 11.5304 10.2023 12.3504 9.82887 13.2194C9.69264 13.5363 9.85594 13.8969 10.1935 14.0247C10.5311 14.1525 10.9152 13.9993 11.0514 13.6824C11.5045 12.628 12.0363 11.6521 12.6336 10.7632H17.2037C16.9842 11.5716 16.7878 12.4342 16.618 13.3442C16.5553 13.6808 16.7951 14.0014 17.1537 14.0604C17.5121 14.1194 17.8539 13.8941 17.9167 13.5575C18.1084 12.5293 18.3262 11.5989 18.563 10.7632H26.437C26.6737 11.5989 26.8915 12.5293 27.0832 13.5575C27.1461 13.8944 27.4878 14.1193 27.8462 14.0604C28.2048 14.0015 28.4447 13.6808 28.3819 13.3442C28.2123 12.4342 28.0157 11.5716 27.7962 10.7632H32.3663C32.9636 11.652 33.4954 12.6281 33.9486 13.6824C34.0848 13.9992 34.4687 14.1525 34.8065 14.0247C35.1442 13.8969 35.3074 13.5362 35.1712 13.2193C34.7977 12.3503 34.3731 11.5304 33.9043 10.7632H36.2047C37.0497 11.6709 37.7998 12.6698 38.4355 13.7501C38.6115 14.0492 39.0124 14.1578 39.3312 13.9925C39.6499 13.8272 39.7654 13.4508 39.5895 13.1517C36.1512 7.30851 29.6029 3.67871 22.5 3.67871C15.3972 3.67871 8.84881 7.30851 5.41045 13.1517C5.23449 13.4508 5.35007 13.8272 5.66876 13.9925V13.9925ZM34.93 9.52559H33.0763C32.2395 8.38232 31.295 7.38491 30.2681 6.55351C31.9722 7.30951 33.5464 8.31136 34.93 9.52559V9.52559ZM31.4465 9.52559H27.4286C26.9708 8.12045 26.2994 6.50682 25.3601 5.33029C27.6411 5.9985 29.743 7.45315 31.4465 9.52559V9.52559ZM22.5 4.91628C23.5908 4.91628 24.9597 6.36936 26.0497 9.52559H18.9503C20.0403 6.36936 21.4092 4.91628 22.5 4.91628V4.91628ZM19.6399 5.33029C18.7009 6.50648 18.0296 8.11962 17.5714 9.52559H13.5536C15.2571 7.45315 17.359 5.9985 19.6399 5.33029ZM14.7319 6.55351C13.7051 7.385 12.7605 8.38232 11.9238 9.52559H10.0701C11.4536 8.31136 13.0277 7.30951 14.7319 6.55351Z" fill="black"/>
<path d="M22.5 40.3115C29.6028 40.3115 36.1512 36.6816 39.5896 30.8381C39.7655 30.539 39.6499 30.1626 39.3312 29.9973C39.0126 29.832 38.6116 29.9405 38.4356 30.2397C37.7998 31.3201 37.0498 32.3189 36.2047 33.2268H33.9044C34.3732 32.4595 34.7978 31.6395 35.1712 30.7705C35.3075 30.4536 35.1442 30.0929 34.8066 29.9651C34.4687 29.8371 34.0849 29.9905 33.9487 30.3074C33.4956 31.3618 32.9637 32.3379 32.3664 33.2268H27.7962C28.0157 32.4183 28.2122 31.5556 28.3819 30.6457C28.4446 30.309 28.2048 29.9884 27.8462 29.9294C27.4879 29.8706 27.1461 30.0956 27.0832 30.4323C26.8915 31.4606 26.6737 32.391 26.437 33.2268H18.563C18.3263 32.391 18.1085 31.4606 17.9167 30.4323C17.8539 30.0956 17.5134 29.8702 17.1537 29.9294C16.7951 29.9883 16.5553 30.309 16.618 30.6457C16.7877 31.5556 16.9842 32.4183 17.2037 33.2268H12.6336C12.0363 32.3379 11.5045 31.3618 11.0514 30.3074C10.9152 29.9905 10.5311 29.8371 10.1935 29.965C9.85585 30.0929 9.69264 30.4535 9.82887 30.7704C10.2023 31.6395 10.6269 32.4594 11.0957 33.2268H8.79528C7.95021 32.319 7.20016 31.3201 6.56445 30.2397C6.3884 29.9406 5.98745 29.832 5.66876 29.9973C5.35007 30.1626 5.23449 30.539 5.41045 30.8381C8.8488 36.6816 15.3972 40.3115 22.5 40.3115V40.3115ZM33.0763 34.4644H34.93C33.5465 35.6788 31.9723 36.6806 30.2681 37.4366C31.295 36.6052 32.2395 35.6077 33.0763 34.4644V34.4644ZM27.4285 34.4644H31.4463C29.7429 36.537 27.641 37.9916 25.36 38.6599C26.2991 37.4836 26.9704 35.8704 27.4285 34.4644ZM26.0497 34.4644C24.9596 37.6208 23.5907 39.0739 22.5 39.0739C21.4093 39.0739 20.0403 37.6208 18.9503 34.4644H26.0497ZM17.5715 34.4644C18.0293 35.8696 18.7007 37.4833 19.64 38.6599C17.359 37.9916 15.2571 36.537 13.5537 34.4644H17.5715ZM11.9238 34.4644C12.7605 35.6077 13.7051 36.6052 14.7319 37.4366C13.0278 36.6806 11.4536 35.6787 10.07 34.4644H11.9238Z" fill="black"/>
<path d="M8.28735 16.873V27.1167C8.28735 28.1404 9.17454 28.9731 10.2649 28.9731C11.3553 28.9731 12.2425 28.1404 12.2425 27.1167V16.873C12.2425 15.8494 11.3553 15.0166 10.2649 15.0166C9.17454 15.0166 8.28735 15.8494 8.28735 16.873V16.873ZM10.9241 16.873V27.1167C10.9241 27.458 10.6284 27.7355 10.2649 27.7355C9.9014 27.7355 9.60573 27.458 9.60573 27.1167V16.873C9.60573 16.5318 9.9014 16.2542 10.2649 16.2542C10.6284 16.2542 10.9241 16.5319 10.9241 16.873V16.873Z" fill="black"/>
<path d="M19.8974 27.5495C19.5492 27.6492 19.353 27.9949 19.4592 28.3218C19.5651 28.648 19.9329 28.833 20.282 28.7332C22.4418 28.115 23.8929 26.4162 23.8929 24.5058C23.8929 23.2326 23.2586 22.0747 22.2323 21.3151C23.1654 21.1666 23.8784 20.4023 23.8784 19.4848C23.8784 17.0216 21.4855 15.0176 18.5444 15.0176C15.6034 15.0176 13.2104 17.0216 13.2104 19.4848C13.2104 20.758 13.8448 21.9159 14.8711 22.6756C13.938 22.824 13.225 23.5883 13.225 24.5058C13.225 26.4097 14.6696 28.1067 16.8194 28.7286C17.167 28.829 17.5362 28.6461 17.6435 28.3196C17.7508 27.9931 17.5556 27.6466 17.2077 27.5461C15.6141 27.0851 14.5434 25.8633 14.5434 24.5059C14.5434 24.1648 14.8391 23.8872 15.2026 23.8872C15.5661 23.8872 15.8618 24.1648 15.8618 24.5059C15.8618 25.6044 17.0718 26.4981 18.559 26.4981C20.0462 26.4981 21.2562 25.6044 21.2562 24.5059C21.2562 23.7494 20.6972 23.1151 19.865 22.9277L16.9307 22.2666C15.5164 21.948 14.5287 20.8041 14.5287 19.4849C14.5287 17.704 16.3301 16.2552 18.5444 16.2552C20.7585 16.2552 22.5599 17.7041 22.5599 19.4849C22.5599 19.8261 22.2642 20.1037 21.9007 20.1037C21.5372 20.1037 21.2415 19.8261 21.2415 19.4849C21.2415 18.3864 20.0316 17.4927 18.5444 17.4927C17.0572 17.4927 15.8471 18.3865 15.8471 19.4849C15.8471 20.2415 16.4062 20.8757 17.2383 21.0632L20.1726 21.7243C21.5869 22.0428 22.5746 23.1867 22.5746 24.5059C22.5746 25.868 21.4986 27.0912 19.8974 27.5495V27.5495ZM19.5574 24.1309C19.6467 24.151 19.9379 24.2375 19.9379 24.5058C19.9379 24.8547 19.3355 25.2604 18.559 25.2604C17.7824 25.2604 17.1801 24.8547 17.1801 24.5058C17.1801 24.1475 17.0714 23.8124 16.8832 23.5284L19.5574 24.1309ZM17.5459 19.8597C17.4566 19.8396 17.1654 19.7531 17.1654 19.4848C17.1654 19.1358 17.7678 18.7302 18.5444 18.7302C19.3209 18.7302 19.9232 19.1358 19.9232 19.4848C19.9232 19.8432 20.0319 20.1782 20.2201 20.4622L17.5459 19.8597Z" fill="black"/>
<path d="M30.5703 17.4917C28.6146 17.4917 27.0236 19.5118 27.0236 21.9949C27.0236 24.4779 28.6147 26.498 30.5703 26.498C32.526 26.498 34.1171 24.4779 34.1171 21.9949C34.1171 19.5118 32.5261 17.4917 30.5703 17.4917V17.4917ZM30.5703 25.2604C29.3832 25.2604 28.3419 23.7344 28.3419 21.9949C28.3419 20.2553 29.3833 18.7294 30.5703 18.7294C31.7574 18.7294 32.7987 20.2553 32.7987 21.9949C32.7987 23.7344 31.7575 25.2604 30.5703 25.2604Z" fill="black"/>
<path d="M36.0723 21.1591C36.43 21.0956 36.6653 20.772 36.5978 20.4362C35.9559 17.2452 33.4773 15.0166 30.5703 15.0166C27.0134 15.0166 24.3868 18.2559 24.3868 21.9949C24.3868 25.7359 27.0154 28.9731 30.5703 28.9731C33.4775 28.9731 35.9561 26.7445 36.5979 23.5536C36.6654 23.2178 36.4302 22.8941 36.0724 22.8308C35.7146 22.7674 35.3698 22.9882 35.3023 23.3241C34.78 25.9214 32.834 27.7355 30.5702 27.7355C27.8876 27.7355 25.7051 25.1603 25.7051 21.9949C25.7051 18.8295 27.8876 16.2542 30.5702 16.2542C32.8338 16.2542 34.7798 18.0683 35.3022 20.6658C35.3698 21.0017 35.7153 21.2227 36.0723 21.1591V21.1591Z" fill="black"/>
</svg>
