<svg width="155" height="37" viewBox="0 0 155 37" fill="none" xmlns="http://www.w3.org/2000/svg">
	<path d="M44.5284 7.01396L50.8778 17.9571V24.4685H54.0312V17.9571L60.3807 7.01396H56.8097L52.5398 14.7356H52.3693L48.0994 7.01396H44.5284ZM65.7564 24.7242C69.5916 24.7242 72.0291 22.0225 72.0291 17.9742C72.0291 13.9174 69.5916 11.2071 65.7564 11.2071C61.9212 11.2071 59.4837 13.9174 59.4837 17.9742C59.4837 22.0225 61.9212 24.7242 65.7564 24.7242ZM65.7734 22.2526C63.6513 22.2526 62.6115 20.3606 62.6115 17.9657C62.6115 15.5708 63.6513 13.6532 65.7734 13.6532C67.8615 13.6532 68.9013 15.5708 68.9013 17.9657C68.9013 20.3606 67.8615 22.2526 65.7734 22.2526ZM82.9915 18.9628C82.9915 20.9571 81.5682 21.9458 80.2045 21.9458C78.7216 21.9458 77.733 20.8975 77.733 19.2356V11.3776H74.6477V19.7128C74.6477 22.8577 76.4375 24.639 79.0114 24.639C80.9716 24.639 82.3523 23.6077 82.9489 22.1418H83.0852V24.4685H86.0767V11.3776H82.9915V18.9628ZM89.2493 24.4685H92.3345V16.7725C92.3345 15.1106 93.5874 13.9344 95.2834 13.9344C95.8033 13.9344 96.451 14.0282 96.7152 14.1134V11.2753C96.4339 11.2242 95.9482 11.1901 95.6072 11.1901C94.1072 11.1901 92.8544 12.0424 92.3771 13.5594H92.2408V11.3776H89.2493V24.4685ZM108.387 11.8123H111.43C111.37 8.86339 108.856 6.77532 105.14 6.77532C101.475 6.77532 98.7223 8.83782 98.7308 11.9231C98.7308 14.4287 100.512 15.8691 103.384 16.6106L105.37 17.1219C107.254 17.5992 108.498 18.1873 108.506 19.5424C108.498 21.0338 107.083 22.031 105.021 22.031C103.043 22.031 101.509 21.1446 101.381 19.3123H98.2706C98.3984 22.781 100.981 24.7327 105.046 24.7327C109.231 24.7327 111.66 22.6446 111.668 19.5679C111.66 16.5424 109.163 15.1617 106.538 14.5395L104.901 14.1304C103.469 13.7895 101.918 13.1844 101.935 11.727C101.944 10.4145 103.12 9.45146 105.097 9.45146C106.981 9.45146 108.225 10.3293 108.387 11.8123ZM120.888 11.3776H118.305V8.24123H115.22V11.3776H113.362V13.764H115.22V21.0424C115.203 23.5054 116.993 24.7157 119.311 24.6475C120.189 24.6219 120.794 24.4515 121.126 24.3407L120.607 21.9287C120.436 21.9713 120.087 22.0481 119.703 22.0481C118.928 22.0481 118.305 21.7753 118.305 20.531V13.764H120.888V11.3776ZM127.235 24.7327C129.289 24.7327 130.516 23.7696 131.079 22.6702H131.181V24.4685H134.147V15.7071C134.147 12.2469 131.326 11.2071 128.829 11.2071C126.076 11.2071 123.962 12.4344 123.281 14.8208L126.161 15.2299C126.468 14.335 127.337 13.5679 128.846 13.5679C130.278 13.5679 131.062 14.3009 131.062 15.5878V15.639C131.062 16.5253 130.133 16.5679 127.823 16.8151C125.283 17.0878 122.854 17.8463 122.854 20.7952C122.854 23.3691 124.738 24.7327 127.235 24.7327ZM128.036 22.4657C126.749 22.4657 125.829 21.8776 125.829 20.7441C125.829 19.5594 126.86 19.0651 128.241 18.8691C129.05 18.7583 130.67 18.5537 131.07 18.2299V19.7725C131.07 21.2299 129.894 22.4657 128.036 22.4657ZM137.249 24.4685H140.335V16.7725C140.335 15.1106 141.587 13.9344 143.283 13.9344C143.803 13.9344 144.451 14.0282 144.715 14.1134V11.2753C144.434 11.2242 143.948 11.1901 143.607 11.1901C142.107 11.1901 140.854 12.0424 140.377 13.5594H140.241V11.3776H137.249V24.4685ZM154.005 11.3776H151.423V8.24123H148.337V11.3776H146.479V13.764H148.337V21.0424C148.32 23.5054 150.11 24.7157 152.428 24.6475C153.306 24.6219 153.911 24.4515 154.244 24.3407L153.724 21.9287C153.553 21.9713 153.204 22.0481 152.82 22.0481C152.045 22.0481 151.423 21.7753 151.423 20.531V13.764H154.005V11.3776Z" fill="black" />
	<rect y="0.468506" width="36" height="36" rx="5" fill="#FFC13E" />
	<path d="M9.52841 10.014L15.8778 20.9571V27.4685H19.0312V20.9571L25.3807 10.014H21.8097L17.5398 17.7356H17.3693L13.0994 10.014H9.52841Z" fill="black" />
	<path d="M46.4794 33.4685H47.1378V31.5658H49.3132V33.4685H49.9737V29.1049H49.3132V31.0012H47.1378V29.1049H46.4794V33.4685ZM52.2919 33.5346C53.0057 33.5346 53.5107 33.183 53.6555 32.6503L53.0526 32.5417C52.9375 32.8506 52.6605 33.0083 52.2983 33.0083C51.7528 33.0083 51.3864 32.6546 51.3693 32.0239H53.696V31.7981C53.696 30.6155 52.9886 30.1532 52.2472 30.1532C51.3352 30.1532 50.7344 30.8478 50.7344 31.8534C50.7344 32.8698 51.3267 33.5346 52.2919 33.5346ZM51.3714 31.5466C51.397 31.0821 51.7337 30.6794 52.2514 30.6794C52.7457 30.6794 53.0696 31.0459 53.0717 31.5466H51.3714ZM55.04 29.1049H54.4029V33.4685H55.04V29.1049ZM55.897 34.6958H56.5341V32.9593H56.5724C56.6875 33.1681 56.9219 33.5324 57.5185 33.5324C58.3111 33.5324 58.8864 32.8975 58.8864 31.8385C58.8864 30.7775 58.3026 30.1532 57.5121 30.1532C56.9048 30.1532 56.6854 30.5239 56.5724 30.7263H56.5192V30.1958H55.897V34.6958ZM56.5213 31.8321C56.5213 31.1482 56.8196 30.6944 57.3757 30.6944C57.9531 30.6944 58.2429 31.1823 58.2429 31.8321C58.2429 32.4884 57.9446 32.9891 57.3757 32.9891C56.8281 32.9891 56.5213 32.5204 56.5213 31.8321ZM61.5907 34.6958C62.117 34.6958 62.4494 34.4209 62.639 33.9053L63.992 30.2022L63.3038 30.1958L62.475 32.7356H62.4409L61.612 30.1958H60.9302L62.1277 33.5111L62.0488 33.7284C61.8869 34.1631 61.6589 34.1993 61.3095 34.1034L61.1561 34.6255C61.2328 34.6596 61.399 34.6958 61.5907 34.6958ZM65.8537 33.5346C66.7763 33.5346 67.3793 32.8591 67.3793 31.8471C67.3793 30.8286 66.7763 30.1532 65.8537 30.1532C64.9311 30.1532 64.3281 30.8286 64.3281 31.8471C64.3281 32.8591 64.9311 33.5346 65.8537 33.5346ZM65.8558 32.9998C65.2528 32.9998 64.9716 32.4735 64.9716 31.8449C64.9716 31.2185 65.2528 30.6858 65.8558 30.6858C66.4545 30.6858 66.7358 31.2185 66.7358 31.8449C66.7358 32.4735 66.4545 32.9998 65.8558 32.9998ZM70.1635 32.1113C70.1657 32.6674 69.7523 32.9316 69.3944 32.9316C69.0002 32.9316 68.7275 32.6461 68.7275 32.2008V30.1958H68.0904V32.2775C68.0904 33.0892 68.5357 33.5111 69.1642 33.5111C69.6564 33.5111 69.9909 33.2512 70.1422 32.9017H70.1763V33.4685H70.8027V30.1958H70.1635V32.1113ZM73.2978 33.4685H73.9199V32.9593H73.9732C74.0882 33.1681 74.3226 33.5324 74.9192 33.5324C75.7118 33.5324 76.2871 32.8975 76.2871 31.8385C76.2871 30.7775 75.7033 30.1532 74.9128 30.1532C74.3056 30.1532 74.0861 30.5239 73.9732 30.7263H73.9348V29.1049H73.2978V33.4685ZM73.9221 31.8321C73.9221 31.1482 74.2203 30.6944 74.7765 30.6944C75.3539 30.6944 75.6436 31.1823 75.6436 31.8321C75.6436 32.4884 75.3453 32.9891 74.7765 32.9891C74.2289 32.9891 73.9221 32.5204 73.9221 31.8321ZM78.413 33.5346C79.1268 33.5346 79.6317 33.183 79.7766 32.6503L79.1737 32.5417C79.0586 32.8506 78.7816 33.0083 78.4194 33.0083C77.8739 33.0083 77.5075 32.6546 77.4904 32.0239H79.8171V31.7981C79.8171 30.6155 79.1097 30.1532 78.3683 30.1532C77.4563 30.1532 76.8555 30.8478 76.8555 31.8534C76.8555 32.8698 77.4478 33.5346 78.413 33.5346ZM77.4925 31.5466C77.5181 31.0821 77.8548 30.6794 78.3725 30.6794C78.8668 30.6794 79.1907 31.0459 79.1928 31.5466H77.4925ZM81.8961 34.764C82.7292 34.764 83.3727 34.3826 83.3727 33.5409V30.1958H82.7484V30.7263H82.7015C82.5886 30.5239 82.3627 30.1532 81.7534 30.1532C80.9629 30.1532 80.3812 30.7775 80.3812 31.8194C80.3812 32.8634 80.9757 33.4195 81.7491 33.4195C82.35 33.4195 82.5822 33.0807 82.6973 32.8719H82.7377V33.5154C82.7377 34.0289 82.3862 34.2505 81.9025 34.2505C81.372 34.2505 81.1653 33.9841 81.0524 33.7966L80.5048 34.0225C80.6774 34.4231 81.1142 34.764 81.8961 34.764ZM81.8897 32.8911C81.3208 32.8911 81.0247 32.4543 81.0247 31.8108C81.0247 31.1823 81.3145 30.6944 81.8897 30.6944C82.4458 30.6944 82.7441 31.1482 82.7441 31.8108C82.7441 32.4863 82.4395 32.8911 81.8897 32.8911ZM84.2271 33.4685H84.8642V30.1958H84.2271V33.4685ZM84.5488 29.6908C84.7683 29.6908 84.9515 29.5204 84.9515 29.3115C84.9515 29.1027 84.7683 28.9302 84.5488 28.9302C84.3272 28.9302 84.1461 29.1027 84.1461 29.3115C84.1461 29.5204 84.3272 29.6908 84.5488 29.6908ZM86.3583 31.5253C86.3583 31.0033 86.6779 30.705 87.1211 30.705C87.5536 30.705 87.8157 30.9884 87.8157 31.4635V33.4685H88.4528V31.3868C88.4528 30.5772 88.0075 30.1532 87.3384 30.1532C86.8462 30.1532 86.5245 30.3811 86.3732 30.7284H86.3327V30.1958H85.7212V33.4685H86.3583V31.5253Z" fill="black" />
</svg>
