<svg width="42" height="44" viewBox="0 0 42 44" fill="none" xmlns="http://www.w3.org/2000/svg">
<path d="M5.32181 33.7251C4.95684 33.7251 4.66095 33.4473 4.66095 33.1047C4.66095 32.7621 4.95684 32.4844 5.32181 32.4844C5.68678 32.4844 5.98267 32.7621 5.98267 33.1047C5.98267 33.4473 5.68678 33.7251 5.32181 33.7251Z" fill="black"/>
<path d="M40.9034 23.1456C40.2698 22.1143 38.7547 21.6862 37.5975 22.3129L29.15 26.8921C28.8735 25.923 27.9298 25.2075 26.8116 25.2075H22.7785C21.1506 24.5536 19.3868 23.9279 17.5965 23.9279C14.1264 23.9279 11.1762 26.2025 9.44216 28.8661L8.14265 27.6463C7.88447 27.4041 7.4661 27.4041 7.20802 27.6463L5.79862 28.9693L5.07494 28.2899C4.76336 28.0478 4.45179 28.0478 4.14031 28.2899L0.193566 31.995C-0.0645219 32.2373 -0.0645219 32.6301 0.193566 32.8723L10.9124 42.9346C11.224 43.1768 11.5356 43.1768 11.8471 42.9346L17.6706 37.4678C17.9287 37.1753 17.9287 36.8829 17.6707 36.5904L16.3794 35.3783H19.5096C19.8747 35.3783 20.1705 35.1006 20.1705 34.7579C20.1705 34.4152 19.8747 34.1376 19.5096 34.1376H15.0578L10.4075 29.7723C11.1189 28.6087 13.5637 25.1687 17.5965 25.1687C19.4007 25.1687 20.985 26.4483 22.6551 26.4483H26.8116C28.1732 26.4483 28.2894 28.5106 26.8115 28.5106H18.8318C18.4668 28.5106 18.171 28.7883 18.171 29.131C18.171 29.4737 18.4668 29.7514 18.8318 29.7514H26.8115C27.788 29.7514 28.6456 29.214 29.0272 28.3913L38.2583 23.3875C38.8701 23.1245 39.3703 23.2509 39.759 23.7666C40.0929 24.3073 39.7223 24.8973 39.2808 25.2225L28.1409 33.396C27.4901 33.8742 26.676 34.1376 25.8483 34.1376H22.3889C22.0239 34.1376 21.7281 34.4152 21.7281 34.7579C21.7281 35.1006 22.0239 35.3783 22.3889 35.3783H25.8483C26.9699 35.3783 28.0734 35.0213 28.9551 34.3733L40.0614 26.2244C41.2019 25.4094 41.4826 24.3832 40.9034 23.1456V23.1456ZM11.3797 41.6186L1.59538 32.4337L4.60758 29.606L14.3919 38.7909L11.3797 41.6186ZM15.3265 37.9135L6.73317 29.8467L7.67529 28.9623L16.2687 37.0291L15.3265 37.9135Z" fill="black"/>
<path d="M2.81435 20.1001H8.90042C9.26548 20.1001 9.56128 19.8224 9.56128 19.4797C9.56128 19.137 9.26548 18.8594 8.90042 18.8594H3.47521V2.11428H37.7342V9.1311C37.7342 9.47379 38.03 9.75147 38.3951 9.75147C38.7602 9.75147 39.056 9.47379 39.056 9.1311V1.49391C39.056 1.15121 38.7602 0.873535 38.3951 0.873535H2.81435C2.44929 0.873535 2.15349 1.15121 2.15349 1.49391V19.4797C2.15349 19.8224 2.44938 20.1001 2.81435 20.1001V20.1001Z" fill="#FFC13E"/>
<path d="M11.781 20.1001H38.3951C38.7602 20.1001 39.056 19.8224 39.056 19.4797V11.8338C39.056 11.4911 38.7602 11.2134 38.3951 11.2134C38.0301 11.2134 37.7343 11.4911 37.7343 11.8338V18.8593H11.781C11.4159 18.8593 11.1201 19.137 11.1201 19.4797C11.1201 19.8224 11.4159 20.1001 11.781 20.1001V20.1001Z" fill="#FFC13E"/>
<path d="M32.9214 17.5312C33.0967 17.5312 33.2647 17.4658 33.3888 17.3495L36.1259 14.7799C36.2498 14.6636 36.3194 14.5058 36.3194 14.3412V6.63274C36.3194 6.46862 36.2501 6.31104 36.1266 6.19482L33.3895 3.61656C33.2655 3.49976 33.097 3.43408 32.9213 3.43408H8.28804C8.11243 3.43408 7.94395 3.49976 7.81989 3.61656L5.08287 6.19482C4.95951 6.31104 4.89008 6.46862 4.89008 6.63274V14.3413C4.89008 14.5058 4.95969 14.6636 5.08358 14.78L7.82068 17.3496C7.94466 17.4659 8.11269 17.5313 8.28804 17.5313H32.9214V17.5312ZM15.7916 10.4826C15.7916 7.2802 17.9508 4.6749 20.6048 4.6749C23.2588 4.6749 25.418 7.2802 25.418 10.4826C25.418 13.685 23.2588 16.2903 20.6048 16.2903C17.9508 16.2903 15.7916 13.685 15.7916 10.4826ZM32.647 4.6749L34.9977 6.88909V14.0843L32.6477 16.2903H24.0757C25.6832 15.0182 26.7396 12.8899 26.7396 10.4826C26.7396 8.07532 25.6832 5.94707 24.0757 4.6749H32.647ZM8.56181 16.2903L6.21188 14.0843V6.88909L8.56252 4.6749H17.1338C15.5263 5.94707 14.4699 8.07532 14.4699 10.4826C14.4699 12.8899 15.5263 15.0182 17.1338 16.2903H8.56181Z" fill="#FFC13E"/>
<path d="M10.3408 8.58154C9.22186 8.58154 8.31146 9.43627 8.31146 10.4868C8.31146 11.5374 9.22186 12.3921 10.3408 12.3921C11.4598 12.3921 12.3702 11.5374 12.3702 10.4868C12.3702 9.43627 11.4598 8.58154 10.3408 8.58154ZM10.3408 11.1513C9.95056 11.1513 9.63318 10.8532 9.63318 10.4869C9.63318 10.1206 9.95065 9.82252 10.3408 9.82252C10.731 9.82252 11.0485 10.1206 11.0485 10.4869C11.0485 10.8532 10.7311 11.1513 10.3408 11.1513Z" fill="#FFC13E"/>
<path d="M30.8686 12.3921C31.9876 12.3921 32.898 11.5374 32.898 10.4868C32.898 9.43627 31.9876 8.58154 30.8686 8.58154C29.7496 8.58154 28.8392 9.43627 28.8392 10.4868C28.8392 11.5374 29.7496 12.3921 30.8686 12.3921ZM30.8686 9.82236C31.2589 9.82236 31.5763 10.1204 31.5763 10.4867C31.5763 10.853 31.2588 11.1511 30.8686 11.1511C30.4784 11.1511 30.161 10.853 30.161 10.4867C30.161 10.1204 30.4784 9.82236 30.8686 9.82236Z" fill="#FFC13E"/>
<path d="M17.7742 9.79297H23.4354C23.7026 9.79297 23.9437 9.64185 24.0459 9.41C24.1482 9.17815 24.0917 8.91139 23.9027 8.73397L22.5343 7.44932C22.2762 7.20705 21.8578 7.20697 21.5998 7.44924C21.3416 7.69151 21.3416 8.08433 21.5997 8.32652L21.8401 8.55224H17.7743C17.4092 8.55224 17.1134 8.82992 17.1134 9.17261C17.1134 9.51529 17.4091 9.79297 17.7742 9.79297V9.79297Z" fill="#FFC13E"/>
<path d="M24.0962 11.7424C24.0962 11.3997 23.8004 11.1221 23.4353 11.1221H17.7741C17.5069 11.1221 17.2658 11.2732 17.1636 11.505C17.0613 11.7369 17.1177 12.0037 17.3068 12.1812L18.6753 13.4658C18.9868 13.708 19.2984 13.708 19.6099 13.4658C19.868 13.2235 19.868 12.8307 19.6099 12.5885L19.3694 12.3628H23.4352C23.8003 12.3628 24.0962 12.0851 24.0962 11.7424V11.7424Z" fill="#FFC13E"/>
</svg>
