<svg width="75" height="46" viewBox="0 0 75 46" fill="none" xmlns="http://www.w3.org/2000/svg">
<path d="M50.4221 25.5618L44.038 22.8978C43.587 22.7097 43.2958 22.2887 43.2958 21.8255V20.1795C45.4403 18.5752 46.8187 16.1047 46.8187 13.3362V11.0192C47.5252 10.6527 47.9929 9.94443 47.9929 9.15115V8.92629C47.9929 4.10223 43.8127 0.17749 38.6746 0.17749H36.3262C31.1881 0.17749 27.0078 4.10223 27.0078 8.92629V10.9666C27.0078 11.6639 27.3275 12.2955 27.8846 12.6997C27.979 12.7682 28.0785 12.8285 28.1821 12.8806V13.3361C28.1821 16.1046 29.5603 18.5751 31.7047 20.1793V21.8254C31.7047 22.2886 31.4134 22.7096 30.9625 22.8977L24.5784 25.5617C22.4876 26.4341 21.1366 28.3859 21.1366 30.534V44.2052C21.1366 44.7748 21.6285 45.2367 22.2352 45.2367C22.842 45.2367 23.3339 44.7748 23.3339 44.2052V30.5341C23.3339 30.4146 23.3429 30.2965 23.3561 30.1793L26.2978 32.9412C26.7556 33.3711 27.0078 33.9426 27.0078 34.5506V44.2053C27.0078 44.775 27.4997 45.2368 28.1065 45.2368C28.7132 45.2368 29.2051 44.775 29.2051 44.2053V34.5506C29.2051 33.3916 28.7245 32.3021 27.8516 31.4826L24.3446 28.1898C24.6606 27.882 25.0397 27.6269 25.4709 27.4468L31.7474 24.8278L36.4019 29.1979V44.2052C36.4019 44.7748 36.8938 45.2367 37.5005 45.2367C38.1073 45.2367 38.5992 44.7748 38.5992 44.2052V29.198L43.2537 24.828L49.53 27.4468C49.9613 27.6269 50.3404 27.882 50.6563 28.1899L47.1493 31.4826C46.2764 32.3021 45.7958 33.3916 45.7958 34.5506V44.2053C45.7958 44.775 46.2877 45.2368 46.8945 45.2368C47.5012 45.2368 47.9931 44.775 47.9931 44.2053V34.5506C47.9931 33.9427 48.2452 33.3711 48.7031 32.9412L51.6447 30.1794C51.6578 30.2966 51.6669 30.4145 51.6669 30.534V44.2052C51.6669 44.7748 52.1588 45.2367 52.7656 45.2367C53.3723 45.2367 53.8642 44.7748 53.8642 44.2052V30.5341C53.8638 28.386 52.5129 26.4342 50.4221 25.5618ZM37.5001 27.3121L33.416 23.4774C33.7265 22.9868 33.9019 22.4192 33.9019 21.8255V21.4058C35.0097 21.8428 36.2254 22.085 37.5002 22.085C38.7751 22.085 39.9906 21.843 41.0984 21.4059V21.8255C41.0984 22.4194 41.2737 22.9868 41.5844 23.4775L37.5001 27.3121ZM37.5002 20.0219C33.5737 20.0221 30.3792 17.0228 30.3792 13.3362V12.8723C31.0647 12.6172 31.7339 12.2112 32.3745 11.6563C32.8202 11.27 32.8482 10.6174 32.4366 10.1987C32.0251 9.78022 31.3302 9.75395 30.8841 10.1403C30.3347 10.6165 29.7856 10.9242 29.2527 11.0549C29.2398 11.058 29.2303 11.0594 29.2236 11.06C29.2157 11.0455 29.205 11.0153 29.205 10.9667V8.92642C29.205 5.23989 32.3995 2.2406 36.326 2.2406H38.6745C42.6011 2.2406 45.7955 5.23989 45.7955 8.92642V9.15129C45.7955 9.18471 45.7741 9.21373 45.746 9.21895C39.1672 10.4389 35.8675 8.13974 34.7542 7.0945C34.3252 6.69167 33.6295 6.69167 33.2006 7.0945C32.7716 7.49733 32.7716 8.15047 33.2006 8.55316C36.6123 11.7563 41.5905 11.814 44.6213 11.4721V13.3361C44.6213 17.0226 41.4268 20.0219 37.5002 20.0219Z" fill="#FFC13E"/>
<path d="M19.8109 19.9515V17.7462C19.8109 15.0553 18.3214 12.6865 16.0771 11.3233C16.2157 10.9059 16.2881 10.4687 16.2881 10.029C16.2881 7.63652 14.215 5.69019 11.6668 5.69019C9.11852 5.69019 7.04547 7.63665 7.04547 10.029C7.04547 10.4742 7.11725 10.9071 7.25612 11.3236C5.01197 12.6866 3.52266 15.0555 3.52266 17.7462V19.9511C3.52266 22.5569 4.9191 24.8611 7.04532 26.2422V28.5105C7.04532 28.9579 6.78063 29.36 6.3545 29.5601L2.55455 31.3439C0.97881 32.0838 0 33.5708 0 35.2248V44.2054C0 44.7751 0.491895 45.2369 1.09863 45.2369C1.70537 45.2369 2.19727 44.7751 2.19727 44.2054V35.671L3.98702 37.3513C4.44478 37.7813 4.69703 38.3527 4.69703 38.9607V44.2054C4.69703 44.7751 5.18892 45.2369 5.79566 45.2369C6.4024 45.2369 6.8943 44.7751 6.8943 44.2054V38.9607C6.8943 37.8018 6.41354 36.7122 5.54078 35.8927L3.04981 33.554C3.0378 33.5427 3.02491 33.5329 3.0126 33.5224C3.1689 33.3928 3.34424 33.28 3.53731 33.1893L7.33727 31.4055C7.53195 31.314 7.71315 31.2061 7.88204 31.0861L10.5681 33.6082V44.2056C10.5681 44.7752 11.06 45.2371 11.6668 45.2371C12.2735 45.2371 12.7654 44.7752 12.7654 44.2056V33.608L15.4516 31.086C15.6207 31.2061 15.8017 31.314 15.9964 31.4054L17.0442 31.8973C17.202 31.9714 17.3696 32.0065 17.5348 32.0065C17.9378 32.0065 18.3258 31.7975 18.5183 31.4362C18.7897 30.9266 18.5697 30.307 18.027 30.0523L16.9792 29.5604C16.5529 29.3603 16.2882 28.9581 16.2882 28.5109V26.2426C18.4144 24.8615 19.8109 22.5572 19.8109 19.9515ZM11.6668 7.75314C13.0034 7.75314 14.0908 8.77417 14.0908 10.029C14.0908 10.1672 14.0776 10.3027 14.0524 10.4354C13.2974 10.2178 12.4966 10.1 11.6668 10.1C10.8381 10.1 10.0383 10.2174 9.28449 10.4344C9.25915 10.3017 9.24274 10.1669 9.24274 10.029C9.24274 8.77403 10.3301 7.75314 11.6668 7.75314ZM11.6668 12.1631C14.9458 12.1631 17.6136 14.6678 17.6136 17.7464V18.1202C13.0396 19.435 10.3137 16.1682 10.1972 16.025C10.0061 15.7859 9.71383 15.6362 9.39626 15.6151C9.07868 15.5942 8.76667 15.7032 8.54152 15.9146C7.49284 16.8992 6.46569 17.3741 5.72389 17.6033C5.80519 14.5906 8.43883 12.1631 11.6668 12.1631ZM11.6668 31.7219L9.12804 29.3384C9.20216 29.0724 9.24274 28.7952 9.24274 28.5106V27.2515C10.0087 27.4762 10.823 27.5974 11.6668 27.5974C12.5105 27.5974 13.3248 27.4762 14.0908 27.2515V28.5106C14.0908 28.7952 14.1314 29.0726 14.2055 29.3384L11.6668 31.7219ZM11.6668 25.5345C8.38771 25.5345 5.71993 23.0297 5.71993 19.9511V19.7374C6.59606 19.5484 7.89508 19.1093 9.25021 18.0861C9.72966 18.5108 10.4149 19.0317 11.2875 19.4786C12.3197 20.0071 13.7451 20.496 15.4862 20.496C16.1479 20.496 16.8558 20.4238 17.6042 20.258C17.4339 23.1945 14.8361 25.5345 11.6668 25.5345Z" fill="#FFC13E"/>
<path d="M72.4456 29.139L66.2972 26.2527C65.8711 26.0526 65.6064 25.6504 65.6064 25.2032V23.7414C67.0456 22.5417 67.9548 20.7935 67.9548 18.8488V17.6747C67.9801 17.6747 68.0051 17.6754 68.0304 17.6754C68.6371 17.6754 69.129 17.2136 69.129 16.6439V14.439C69.129 10.8308 66.0023 7.89526 62.1591 7.89526H59.8107C55.9675 7.89526 52.8408 10.8308 52.8408 14.439V16.6439C52.8408 17.2136 53.3327 17.6754 53.9395 17.6754C53.9485 17.6754 53.9749 17.6751 54.015 17.6736V18.8488C54.015 20.7936 54.9244 22.5419 56.3636 23.7415V25.2033C56.3636 25.6507 56.0989 26.0528 55.6727 26.2528C55.1299 26.5075 54.9099 27.1271 55.1814 27.6366C55.3738 27.9981 55.7619 28.2071 56.1648 28.2071C56.3299 28.2071 56.4975 28.172 56.6553 28.0981C56.85 28.0066 57.0312 27.8986 57.2001 27.7787L59.8863 30.3007V44.2053C59.8863 44.775 60.3782 45.2368 60.9849 45.2368C61.5917 45.2368 62.0836 44.775 62.0836 44.2053V30.3004L64.7696 27.7784C64.9387 27.8985 65.1197 28.0065 65.3144 28.0978L71.2639 30.8907L69.4593 32.5849C68.5866 33.4045 68.1058 34.494 68.1058 35.6529V44.2051C68.1058 44.7747 68.5977 45.2365 69.2045 45.2365C69.8112 45.2365 70.3031 44.7747 70.3031 44.2051V35.6529C70.3031 35.0451 70.5552 34.4735 71.0131 34.0436L72.7224 32.4387C72.7743 32.6254 72.8027 32.82 72.8027 33.0197V44.2051C72.8027 44.7747 73.2946 45.2365 73.9013 45.2365C74.5081 45.2365 75 44.7747 75 44.2051V33.0197C75.0001 31.3657 74.0213 29.8788 72.4456 29.139ZM55.0379 15.4002V14.4389H55.0381C55.0381 11.9682 57.1791 9.95807 59.8107 9.95807H62.1591C64.7907 9.95807 66.9318 11.9682 66.9318 14.4389V15.5847C62.1559 15.3428 59.2738 13.5979 59.2459 13.5807C59.06 13.4644 58.8479 13.4074 58.6368 13.4074C58.3532 13.4074 58.0719 13.5103 57.8595 13.7096C56.8084 14.6965 55.7784 15.1715 55.0379 15.4002ZM60.9849 28.4145L58.4462 26.031C58.5203 25.765 58.5609 25.4877 58.5609 25.2032V24.9836C59.3162 25.2475 60.1328 25.3924 60.9849 25.3924C61.837 25.3924 62.6537 25.2475 63.409 24.9836V25.2032C63.409 25.4877 63.4494 25.765 63.5236 26.031L60.9849 28.4145ZM60.9849 23.3296C58.3533 23.3296 56.2123 21.3196 56.2123 18.8488V17.1859C56.9818 16.8972 57.8783 16.4383 58.7906 15.7086C59.9443 16.2722 62.3581 17.2463 65.7575 17.5681V18.8488C65.7575 21.3195 63.6165 23.3296 60.9849 23.3296Z" fill="#FFC13E"/>
</svg>
