<svg width="128" height="22" viewBox="0 0 128 22" fill="none" xmlns="http://www.w3.org/2000/svg">
<path d="M23.6311 7.96714C23.4389 7.41187 22.9289 7.00961 22.3144 6.92536L16.0914 6.07626L13.3081 0.786631C12.7589 -0.259606 10.9356 -0.259606 10.3864 0.786631L7.60312 6.07626L1.39488 6.92536C0.780627 7.00937 0.270628 7.41327 0.079878 7.96714C-0.112372 8.52241 0.048878 9.12978 0.493878 9.53509L4.99462 13.6424L3.93388 19.4553C3.82963 20.0289 4.08062 20.6102 4.58237 20.9529C5.08587 21.2941 5.75062 21.3385 6.29987 21.0676L11.8466 18.3218L17.4099 21.0676C17.6479 21.1855 17.9086 21.2437 18.1676 21.2437C18.5049 21.2437 18.8421 21.1458 19.1291 20.9531C19.6311 20.6088 19.8819 20.0291 19.7776 19.4556L18.7169 13.6426L23.2176 9.53532C23.6621 9.13119 23.8234 8.521 23.6311 7.96714Z" fill="#FFC13E"/>
<path d="M49.7034 7.96714C49.5111 7.41187 49.0011 7.00961 48.3866 6.92536L42.1636 6.07626L39.3804 0.786631C38.8311 -0.259606 37.0079 -0.259606 36.4586 0.786631L33.6754 6.07626L27.4669 6.92536C26.8526 7.00937 26.3426 7.41327 26.1519 7.96714C25.9596 8.52241 26.1209 9.12978 26.5659 9.53509L31.0666 13.6424L30.0059 19.4553C29.9016 20.0289 30.1526 20.6119 30.6544 20.9529C31.1564 21.2941 31.8244 21.3385 32.3719 21.0676L37.9186 18.3218L43.4819 21.0676C43.7199 21.1855 43.9806 21.2437 44.2396 21.2437C44.5769 21.2437 44.9141 21.1458 45.2011 20.9531C45.7031 20.6088 45.9539 20.0291 45.8496 19.4556L44.7889 13.6426L49.2896 9.53532C49.7344 9.13119 49.8956 8.521 49.7034 7.96714Z" fill="#FFC13E"/>
<path d="M75.7756 7.96714C75.5833 7.41187 75.0733 7.00961 74.4588 6.92536L68.2356 6.07626L65.4523 0.786631C64.9031 -0.259606 63.0798 -0.259606 62.5306 0.786631L59.7474 6.07626L53.5389 6.92536C52.9246 7.00937 52.4146 7.41327 52.2239 7.96714C52.0316 8.52241 52.1929 9.12978 52.6379 9.53509L57.1386 13.6424L56.0779 19.4553C55.9736 20.0289 56.2246 20.6119 56.7264 20.9529C57.2284 21.2941 57.8964 21.3385 58.4439 21.0676L63.9908 18.3218L69.5541 21.0676C69.7921 21.1855 70.0528 21.2437 70.3118 21.2437C70.6491 21.2437 70.9863 21.1458 71.2733 20.9531C71.7753 20.6088 72.0261 20.0291 71.9218 19.4556L70.8611 13.6426L75.3618 9.53532C75.8066 9.13119 75.9678 8.521 75.7756 7.96714Z" fill="#FFC13E"/>
<path d="M101.848 7.96495C101.656 7.40968 101.146 7.00742 100.531 6.92317L94.3081 6.07407L91.5249 0.784678C90.9756 -0.261559 89.1524 -0.261559 88.6031 0.784678L85.8199 6.0743L79.6114 6.9234C78.9971 7.00742 78.4871 7.41132 78.2964 7.96518C78.1041 8.52045 78.2654 9.12783 78.7104 9.53313L83.2111 13.6404L82.1504 19.4534C82.0461 20.027 82.2971 20.6083 82.7989 20.9509C83.3024 21.2922 83.9689 21.3365 84.5164 21.0657L90.0634 18.3198L95.6266 21.0657C95.8646 21.1835 96.1253 21.2417 96.3843 21.2417C96.7216 21.2417 97.0589 21.1438 97.3459 20.9512C97.8479 20.6069 98.0986 20.0272 97.9943 19.4536L96.9336 13.6406L101.434 9.53336C101.879 9.13064 102.04 8.51881 101.848 7.96495Z" fill="#FFC13E"/>
<path d="M127.92 7.96699C127.728 7.41171 127.218 7.00945 126.603 6.9252L120.38 6.07632L117.597 0.78664C117.048 -0.259609 115.225 -0.259609 114.675 0.78664L111.892 6.07632L105.684 6.9252C105.069 7.00945 104.559 7.41312 104.369 7.96699C104.176 8.52227 104.338 9.12964 104.783 9.53495L109.283 13.6423L108.223 19.4553C108.118 20.0289 108.369 20.6102 108.871 20.9529C109.375 21.2939 110.041 21.3385 110.589 21.0676L116.136 18.3218L121.699 21.0676C121.937 21.1854 122.198 21.2437 122.457 21.2437C122.794 21.2437 123.131 21.1458 123.418 20.9531C123.92 20.6088 124.171 20.0291 124.067 19.4556L123.006 13.6425L127.507 9.53519C127.951 9.13105 128.112 8.52062 127.92 7.96699ZM120.115 12.01C119.73 12.3618 119.552 12.8683 119.644 13.3653L120.292 16.9174L116.891 15.2393C116.655 15.1215 116.394 15.0633 116.134 15.0633C115.873 15.0633 115.612 15.1215 115.376 15.2393L111.993 16.9129L112.642 13.3656C112.733 12.8685 112.555 12.3606 112.171 12.0102L109.427 9.50609L113.209 8.98906C113.738 8.91725 114.196 8.60347 114.434 8.15239L116.134 4.92001L117.833 8.15239C118.071 8.60511 118.529 8.91725 119.06 8.98906L122.857 9.50773L120.115 12.01Z" fill="#FFC13E"/>
</svg>
