<svg width="48" height="46" viewBox="0 0 48 46" fill="none" xmlns="http://www.w3.org/2000/svg">
<path d="M38.3847 23.8266L40.5727 21.7727C41.2162 21.1686 40.2184 20.2363 39.5749 20.8404L37.4456 22.8394C36.765 23.3454 35.9806 23.3341 35.3207 22.8268L38.2896 20.0396C38.9331 19.4355 37.9352 18.503 37.2919 19.1073L32.6021 23.5098C32.0207 24.0557 31.0522 24.0557 30.4707 23.5098C29.8819 22.9571 29.8819 22.0578 30.4706 21.5049C30.4707 21.5049 30.4707 21.5049 30.4707 21.5048L31.2324 20.7898C31.876 20.1857 30.878 19.2532 30.2346 19.8574L29.473 20.5724C28.8916 21.1183 27.9231 21.1183 27.3416 20.5724C26.7527 20.0196 26.7527 19.1202 27.3417 18.5673C27.3419 18.5671 27.342 18.567 27.3422 18.5669L28.1033 17.8523C28.7468 17.2483 27.7489 16.3158 27.1056 16.92L26.3446 17.6345C25.7764 18.1666 24.7809 18.1684 24.2127 17.6349C23.539 17.0026 23.7589 16.178 24.2853 15.5616L24.9742 14.9148C25.6178 14.3108 24.6199 13.3785 23.9765 13.9826L23.2881 14.6288C22.6932 15.1432 21.7518 15.1883 21.1562 14.6294C20.5673 14.0765 20.5673 13.177 21.1562 12.6242L28.4557 5.77177C29.9743 4.3461 32.3101 3.945 34.2681 4.7736C34.5356 4.88676 34.8499 4.83291 35.057 4.63826L38.6072 1.30548C39.2507 0.701461 38.2529 -0.230972 37.6095 0.373226L34.3896 3.39598C32.0014 2.58384 29.2712 3.13718 27.4578 4.83951L20.1584 11.692C18.2811 13.4529 19.7226 16.4926 22.3768 16.3602C22.175 18.0095 23.7001 19.5029 25.4998 19.3618C25.4379 20.1301 25.7193 20.9184 26.3438 21.5048C26.9434 22.0677 27.7837 22.3582 28.6288 22.2993C28.5669 23.0676 28.8482 23.8559 29.4727 24.4423C30.5878 25.4891 32.4819 25.4915 33.5996 24.4423L34.325 23.7612C35.3976 24.7649 37.2827 24.8603 38.3847 23.8266V23.8266Z" fill="#FFC13E"/>
<path d="M47.7929 8.9965C47.5175 8.7391 47.0713 8.73945 46.7964 8.99755L43.2463 12.3304C43.0398 12.5243 42.9825 12.8175 43.1025 13.0673C43.9857 14.9068 43.5584 17.1012 42.0389 18.5277C41.3955 19.1316 42.3932 20.0643 43.0367 19.46C44.8498 17.7578 45.4387 15.195 44.573 12.9539L47.7943 9.93C48.0691 9.6719 48.0685 9.25399 47.7929 8.9965V8.9965Z" fill="#FFC13E"/>
<path d="M5.69875 25.2663L4.96542 25.9547C3.15224 27.6569 2.56342 30.2197 3.42904 32.4607L0.207831 35.4847C-0.435584 36.0887 0.561953 37.0213 1.20556 36.4171L4.75571 33.0843C4.96222 32.8904 5.01944 32.5972 4.89946 32.3473C4.01627 30.5078 4.44358 28.3134 5.96305 26.887L6.69638 26.1986C7.33998 25.5946 6.34207 24.6621 5.69875 25.2663V25.2663Z" fill="#FFC13E"/>
<path d="M25.8516 31.716C25.8518 31.7158 25.8521 31.7154 25.8524 31.7151C26.988 30.6482 26.9877 28.9129 25.8516 27.8463C25.2519 27.2835 24.4117 26.993 23.5665 27.0519C23.6285 26.2836 23.3471 25.4953 22.7226 24.909C22.1233 24.3463 21.2825 24.0551 20.4375 24.1145C20.4994 23.3462 20.2181 22.5579 19.5936 21.9716C18.9776 21.3934 18.1063 21.1029 17.2402 21.1826C17.2822 20.4343 16.9994 19.6727 16.3919 19.1023C15.2768 18.0556 13.3828 18.0532 12.2652 19.1023L8.22438 22.8956C7.58087 23.4997 8.5785 24.4318 9.2221 23.8279L13.2628 20.0348C13.8441 19.4889 14.8128 19.4889 15.3941 20.0348C15.9829 20.5875 15.983 21.4867 15.3944 22.0396C15.3943 22.0397 15.3942 22.0398 15.3941 22.0399L14.7051 22.6866C14.0618 23.2906 15.0591 24.2232 15.7028 23.6189L16.3918 22.9722C16.9903 22.4117 17.9592 22.3064 18.5958 22.904C19.1847 23.4568 19.1847 24.3562 18.5958 24.9091L17.8342 25.6241C17.1908 26.228 18.1885 27.1607 18.832 26.5564L19.593 25.8419C20.1612 25.3098 21.1567 25.308 21.7249 25.8415C22.3138 26.3943 22.3138 27.2937 21.7249 27.8466C21.7247 27.8468 21.7246 27.8469 21.7244 27.847L20.9633 28.5616C20.3199 29.1655 21.3175 30.0982 21.961 29.4938L22.7225 28.7788C23.3039 28.2331 24.2723 28.233 24.8538 28.7788C25.4428 29.3316 25.4428 30.2311 24.8538 30.784L23.6296 31.9333C23.6296 31.9333 23.6296 31.9333 23.6295 31.9334L20.1641 35.1866C19.5207 35.7906 20.5182 36.7231 21.1618 36.1189L24.1284 33.3339C24.6934 33.9513 24.657 34.7136 24.1395 35.3309L19.5462 39.6428C18.0276 41.0683 15.6916 41.4694 13.7338 40.6409C13.4664 40.5278 13.1521 40.5817 12.9448 40.7763L9.3947 44.109C8.75129 44.713 9.74882 45.6455 10.3924 45.0413L13.6123 42.0186C16.0005 42.8307 18.7307 42.2774 20.544 40.5751L25.1957 36.2083C26.4377 35.0433 25.9149 33.4745 25.1713 32.355L25.8516 31.716Z" fill="#FFC13E"/>
<path d="M8.9347 9.5557C9.57473 10.1652 10.5775 9.2375 9.93919 8.62988L5.47222 4.37804C4.83322 3.76963 3.82864 4.69553 4.46773 5.30386L8.9347 9.5557Z" fill="#FFC13E"/>
<path d="M13.0405 13.4004C13.6709 14.0236 14.6877 13.1096 14.0636 12.4926L12.7532 11.197C12.1266 10.5775 11.1035 11.4854 11.7301 12.1048L13.0405 13.4004Z" fill="#FFC13E"/>
<path d="M6.91379 16.9151L1.86551 15.6072C0.987298 15.3797 0.611567 16.6518 1.48968 16.8794L6.53796 18.1873C7.38507 18.4065 7.78288 17.1403 6.91379 16.9151Z" fill="#FFC13E"/>
<path d="M18.0882 7.07163C18.313 7.88321 19.682 7.56933 19.4525 6.74032L18.1377 1.99182C17.9089 1.1658 16.5448 1.4971 16.7735 2.32312L18.0882 7.07163Z" fill="#FFC13E"/>
<path d="M37.8649 34.8334C37.2259 34.2249 36.2213 35.1509 36.8604 35.7593L41.3274 40.0115C41.9675 40.621 42.9703 39.6933 42.3319 39.0856L37.8649 34.8334Z" fill="#FFC13E"/>
<path d="M33.7591 30.9885C33.1326 30.369 32.1095 31.2769 32.7361 31.8963L34.0465 33.1919C34.6768 33.8151 35.6937 32.9011 35.0696 32.2841L33.7591 30.9885Z" fill="#FFC13E"/>
<path d="M45.31 27.5099L40.2618 26.2022C39.3835 25.9747 39.0078 27.2467 39.8859 27.4742L44.9342 28.782C45.7813 29.0011 46.1792 27.7351 45.31 27.5099Z" fill="#FFC13E"/>
<path d="M28.7114 37.318C28.4826 36.492 27.1185 36.8233 27.3472 37.6493L28.6619 42.3978C28.8867 43.2094 30.2557 42.8955 30.0262 42.0665L28.7114 37.318Z" fill="#FFC13E"/>
</svg>
